<svg>
  <symbol viewBox="0 0 174 150" xmlns="http://www.w3.org/2000/svg" id="iconMarketing">
<path d="M142.051 39.6761C138.98 39.269 135.587 40.0323 132.415 40.6431C129.141 32.6359 125.561 24.7475 121.694 17.0797C119.251 12.2448 116.384 4.57699 111.668 1.37074C105.136 -3.05694 97.757 4.27163 93.6516 8.76717C76.1784 27.9029 60.2489 48.1073 36.8382 60.4913C36.6177 60.61 36.448 60.7457 36.2784 60.8815C29.6834 62.8913 23.1122 64.9781 16.5659 67.1413C12.3588 68.5493 6.60786 69.4823 3.13018 72.5868C-2.84125 77.8966 1.14536 89.4663 3.5034 95.5395C5.72572 101.256 10.8998 112.792 17.5668 114.743C19.382 115.286 21.5534 114.998 23.7079 114.455C27.6605 122.665 31.2739 131.114 35.8373 139.002C38.7721 144.091 41.7579 150.86 48.6284 148.587C55.8043 146.212 64.8293 138.9 62.6409 130.435C61.5382 126.16 57.6364 122.971 55.2105 119.493C52.5132 115.659 50.4266 111.503 48.4588 107.262C49.5275 106.923 50.5793 106.6 51.648 106.244C65.0838 103.631 78.5873 102.291 92.2266 103.801C104.373 105.141 116.231 108.348 128.157 110.892C134.027 112.148 145.223 116.779 149.261 109.654C153.383 102.393 147.937 88.8047 146.071 81.5779C144.799 76.6752 143.374 71.7895 141.864 66.9207C145.155 64.6984 149.244 62.6118 150.855 58.8966C152.552 54.9948 150.855 50.669 149.21 47.0725C147.768 43.985 145.766 40.1681 142.051 39.6761ZM13.7159 103.852C11.748 101.104 10.1534 98.169 8.84715 95.0645C7.52393 91.96 6.50607 88.7877 5.91232 85.4627C4.62304 78.3377 8.60964 75.1993 14.7677 73.1297C22.198 70.619 29.6793 68.2609 37.1775 65.9538C40.9605 77.9475 44.9811 89.8565 49.2221 101.698C42.5721 103.835 35.8713 105.82 29.1025 107.533C22.7748 109.145 18.0079 109.823 13.7159 103.852ZM53.6668 123.802C54.3454 124.701 55.4311 125.855 55.9739 126.703C59.2989 131.911 59.3668 135.117 54.973 139.952C53.8025 141.241 51.5293 142.683 50.0025 143.413C48.5096 144.125 47.407 144.498 46.423 144.532C47.1355 143.328 47.7123 142.039 48.1704 140.698C48.9677 138.374 45.2864 137.373 44.4891 139.681C44.0989 140.8 43.59 141.852 42.9793 142.853C42.8096 142.7 42.657 142.564 42.4873 142.378C42.1219 142.005 41.7818 141.609 41.4695 141.19C41.5034 141.106 41.5543 141.038 41.5713 140.953C41.8427 140.139 42.3686 139.409 42.7588 138.646C43.2338 137.696 43.6239 136.729 43.9802 135.728C44.7775 133.404 41.0963 132.403 40.2989 134.71C39.9596 135.694 39.4846 136.593 39.0096 137.509C38.5007 136.61 38.0257 135.694 37.5677 134.761C37.5677 134.744 37.5846 134.744 37.5846 134.727C38.4668 132.81 39.332 130.91 40.2141 128.993C40.6382 128.06 40.4855 126.94 39.5355 126.381C38.7213 125.906 37.3471 126.126 36.923 127.059C36.4311 128.128 35.9391 129.197 35.4641 130.265C35.1248 129.519 34.7686 128.789 34.4463 128.111L33.9373 127.042C34.073 126.906 34.2088 126.754 34.3275 126.567C35.1757 125.108 36.0239 123.632 36.8721 122.173C38.1105 120.053 34.8025 118.119 33.5811 120.239C33.0552 121.156 32.5293 122.072 31.9864 122.971C31.5114 121.953 31.0195 120.952 30.5445 119.934C30.6802 119.815 30.8159 119.697 30.9346 119.544C31.698 118.543 32.4275 117.525 33.14 116.49C33.7168 115.642 33.2927 114.37 32.4614 113.878C31.5114 113.318 30.4257 113.708 29.8489 114.556C29.4927 115.082 29.1025 115.591 28.7293 116.1L27.4061 113.301C28.4918 112.945 29.5096 112.623 30.4427 112.385C35.2605 111.164 40.0445 109.806 44.7945 108.348C47.3052 113.827 50.0364 119.018 53.6668 123.802ZM124.204 104.836C113.228 102.41 102.286 99.7127 91.073 98.5931C78.248 97.3207 65.5588 98.5591 52.9373 100.866C48.5775 88.7368 44.4721 76.5225 40.6043 64.2234C61.64 52.7386 77.9766 34.8074 93.3972 16.8082C95.1784 14.7216 98.0114 10.735 101.167 8.07163C110.277 21.677 116.214 38.6413 122.169 53.6886C129.005 70.9413 134.688 89.6868 137.962 108.059C133.28 107.703 127.495 105.565 124.204 104.836ZM145.308 103.258C145.138 105.905 143.764 107.228 141.779 107.788C138.454 88.7368 132.534 69.3466 125.375 51.4663C119.336 36.402 113.517 19.6073 104.39 6.00199C106.053 5.28949 107.749 5.15378 109.378 6.08681C111.532 7.32521 113.381 12.2618 114.535 14.3315C119.828 23.9841 124.255 34.1288 128.31 44.3413C133.161 56.5386 137.47 68.9904 140.829 81.6797C142.509 88.0582 145.749 96.5913 145.308 103.258ZM146.495 58.6761C145.172 60.5591 142.78 61.8824 140.66 63.1886C138.587 56.8207 136.318 50.5183 133.857 44.2904C135.367 44.0359 136.894 43.7984 138.42 43.6288C142.153 43.2386 143.578 44.3073 145.325 47.7511C146.97 51.0252 148.904 55.2493 146.495 58.6761ZM143.069 28.2422C143.103 24.6118 143.052 20.9815 143.086 17.3681C143.103 14.9082 139.286 14.9082 139.269 17.3681C139.235 20.9984 139.286 24.6288 139.252 28.2422C139.218 30.702 143.035 30.702 143.069 28.2422ZM158.608 35.5877C160.593 33.3993 162.578 31.2279 164.579 29.0395C166.225 27.2243 163.544 24.527 161.882 26.3422C159.897 28.5306 157.912 30.702 155.911 32.8904C154.248 34.7056 156.945 37.4029 158.608 35.5877ZM171.687 48.0904C168.854 47.9207 166.021 47.9377 163.188 47.8359C160.728 47.7681 160.728 51.585 163.188 51.6529C166.021 51.7377 168.871 51.7207 171.687 51.9073C174.13 52.06 174.13 48.2431 171.687 48.0904ZM157.319 65.4618C155.317 64.0199 153.417 67.3279 155.385 68.7529C157.811 70.5002 160.084 72.4681 162.289 74.4868C164.104 76.1324 166.802 73.452 164.986 71.7895C162.544 69.5672 160.016 67.4127 157.319 65.4618Z" />
<path d="M20.6373 83.444C22.9105 82.5618 21.9096 78.8636 19.6194 79.7627C17.0578 80.7636 14.4962 81.7475 11.9346 82.7484C9.66141 83.6306 10.6623 87.3288 12.9525 86.4297C15.5141 85.4458 18.0757 84.4449 20.6373 83.444ZM21.6891 86.0225C19.0596 87.2779 16.3623 88.2958 13.5802 89.127C11.2391 89.8225 12.24 93.5038 14.598 92.8083C17.7025 91.8922 20.7052 90.7047 23.623 89.3136C25.8284 88.2618 23.8944 84.9707 21.6891 86.0225Z" />
</symbol>

  <symbol viewBox="0 0 182 174" xmlns="http://www.w3.org/2000/svg" id="iconHR">
<path d="M42.3404 20.7486C15.1816 38.1532 7.61792 75.5972 28.4872 101.904C30.2139 104.072 33.4914 101.471 31.7731 99.2969C12.5635 75.0914 19.3812 40.4416 44.6037 24.2748C91.9947 -6.18665 145.304 50.7742 115.725 96.6872C105.443 112.611 85.9175 122.924 64.5453 118.976C61.8266 118.473 61.0554 122.594 63.7881 123.1C86.5098 127.288 107.865 116.587 119.246 98.9588C151.537 48.8379 93.0648 -11.8727 42.3404 20.7486Z" />
<path d="M136.105 113.502C133.35 110.68 131.481 108.11 128.179 105.424C134.754 95.7153 138.648 84.4418 139.467 72.7444C144.281 6.42602 58.4625 -26.1338 18.596 28.4353C4.3069 43.1268 -2.33472 65.1612 1.75028 85.3654C11.8147 135.12 74.2995 157.395 116.846 122.091C118.15 123.167 119.444 124.466 120.749 125.545C115.842 132.019 121.735 139.999 128 145.425C150.626 165.012 158.148 176.971 167.279 172.008C172.172 171.257 173.597 167.842 178.59 163.419C180.409 161.604 181.434 159.143 181.442 156.573C181.449 154.004 180.438 151.536 178.629 149.711C144.505 116.662 144.485 111.53 136.108 113.499L136.105 113.502ZM113.736 115.419C85.2441 140.057 42.1448 134.005 21.1135 103.74C-10.0549 59.1035 27.2885 -2.52074 82.137 5.91749C134.326 13.7718 154.466 80.1991 113.736 115.419ZM119.567 115.726C121.774 113.573 123.831 111.271 125.722 108.836C128.209 110.89 129.657 112.748 132.196 115.466C130.864 116.567 129.696 117.881 125.91 121.591C125.03 120.789 122.473 118.381 119.567 115.726ZM175.631 160.446L169.671 166.364C167.52 168.502 164.027 168.493 161.892 166.339L128.475 132.703C126.351 130.571 126.323 127.087 128.497 124.927C133.756 120.113 135.072 117.162 138.349 117.408C142.403 117.422 140.705 118.286 175.651 152.667C177.794 154.819 177.782 158.309 175.631 160.446Z" />
<path d="M87.6107 60.9616C89.3822 56.5805 89.7594 51.7802 89.9578 47.5946C100.542 30.2822 80.6645 11.5952 67.0823 24.3503C59.3287 22.6906 50.2394 30.3269 54.4781 46.1165C53.9025 72.7165 79.7369 80.4338 87.6107 60.9616ZM76.1129 67.2009C69.7116 69.1931 59.9937 64.5549 58.7782 48.3825C65.4282 48.3741 74.6684 44.0293 79.5022 38.1728C80.6338 42.0119 82.4612 45.5744 85.7443 47.8405C85.3419 55.8009 83.7269 64.8287 76.1129 67.2009ZM60.5553 30.1816C64.7185 26.2783 67.5043 30.2124 69.3093 28.0805C77.5743 18.3737 93.4895 29.2987 87.2726 43.7052C84.3723 41.0955 83.2016 36.6025 82.4165 32.0258C82.042 29.8435 78.9238 29.648 78.3287 31.8274C76.5879 38.2063 65.0315 44.5406 58.3284 44.2249C57.1157 39.2765 56.8335 33.6715 60.5553 30.1816Z" />
<path d="M103.738 103.209C104.157 103.211 104.572 103.118 104.95 102.938C105.328 102.757 105.661 102.494 105.923 102.167C106.185 101.84 106.37 101.458 106.464 101.05C106.558 100.641 106.558 100.217 106.465 99.8082C98.2368 65.2338 51.1307 65.8765 36.7745 99.7216C36.185 101.219 37.1434 102.949 38.8953 103.192C46.5148 103.997 57.0906 104.301 67.8367 104.301C92.4837 104.301 102.8 103.209 103.738 103.209ZM79.3206 78.7294C76.4203 82.1941 71.4467 82.1075 68.675 78.6652C68.8342 78.6344 75.7301 78.0113 79.3206 78.7294ZM41.5916 99.2382C45.8806 90.434 53.352 83.2615 64.3497 79.7912C68.457 87.1118 79.1557 87.5616 83.6123 79.9029C93.1459 83.1553 99.4634 90.0568 101.967 99.1237C88.7954 99.5875 63.0644 101.113 41.5916 99.2382Z" />
</symbol>

  <symbol viewBox="0 0 124 164" xmlns="http://www.w3.org/2000/svg" id="iconDesign">
<path d="M60.3888 33.6665C63.5605 33.6665 66.4435 31.1028 66.8488 27.9716C67.3048 25.3623 66.1648 22.6389 64.0621 21.3292C58.846 18.0789 52.3936 22.9455 53.9693 28.7721C54.3711 30.1696 55.2126 31.4004 56.3689 32.282C57.5252 33.1636 58.9348 33.6491 60.3888 33.6665Z" />
<path d="M121.039 35.564C122.301 33.7603 124.211 31.0369 123.808 27.9994C123.398 24.6453 120.664 22.5198 118.134 20.7896C116.758 19.8522 105.72 12.2826 105.497 12.1306C103.894 11.0185 100.909 8.96398 97.7301 9.72905C95.2981 10.3142 93.7427 12.2624 92.3544 14.2004C86.7811 22.0284 86.89 21.9068 73.0352 41.3172L71.9712 36.8839C78.3299 29.2864 76.4603 16.3081 66.1977 12.5081C65.9789 9.98439 65.4922 7.49108 64.7461 5.07025C63.2135 0.130249 59.2057 0.0162488 57.2171 2.62305C55.6261 4.63705 54.7597 10.5296 54.2683 12.883C46.2629 16.5564 42.2172 27.095 47.4283 35.1536C46.5669 37.3728 47.6867 35.4398 41.7587 60.2133L24.2483 35.5538C18.8497 27.7309 11.7843 26.5605 7.52574 24.283C7.00307 24.0662 6.43246 23.9911 5.87147 24.0652C4.95271 22.8071 4.03648 21.5472 3.1228 20.2854C2.99572 20.1101 2.83535 19.9615 2.65084 19.8482C2.46634 19.7349 2.26132 19.659 2.04748 19.6249C1.83365 19.5907 1.61519 19.5991 1.40458 19.6494C1.19396 19.6997 0.995328 19.791 0.820004 19.9181C0.644681 20.0452 0.496103 20.2056 0.382758 20.3901C0.269414 20.5746 0.193521 20.7796 0.159411 20.9934C0.125301 21.2073 0.133642 21.4257 0.18396 21.6363C0.234277 21.847 0.325585 22.0456 0.452669 22.2209C1.79534 24.0778 2.68707 25.304 3.31534 26.1222C3.138 26.6188 3.0772 27.1609 3.16334 27.698C4.43 33.4816 3.9816 38.8953 8.39467 45.3578L23.4655 66.6201C20.3165 67.9451 17.3044 70.0655 17.3044 73.4677C17.0511 87.8799 17.3525 86.7449 15.5513 89.7672L9.0052 100.889C8.5855 101.598 8.33044 102.393 8.25882 103.214C8.1872 104.035 8.30086 104.862 8.5914 105.634C8.88195 106.405 9.34198 107.101 9.93755 107.671C10.5331 108.241 11.2491 108.67 12.0325 108.927C14.044 109.596 16.1036 110.282 18.1733 110.951C18.6825 111.117 19.1259 111.44 19.44 111.874C19.754 112.308 19.9225 112.83 19.9213 113.365V124.183C19.9318 126.696 20.8904 129.113 22.6056 130.951C24.3207 132.789 26.6661 133.912 29.1731 134.095C31.4353 134.258 33.2365 134.313 34.8984 134.273C35.8307 134.199 36.6768 135.099 36.6768 136.056V143.679C32.2865 144.502 31.0021 147.317 29.9255 151.646C29.2212 154.466 28.18 157.544 27.4757 161.096C27.4226 161.364 27.4372 161.642 27.5183 161.904C27.5995 162.166 27.7445 162.403 27.9404 162.595C28.1362 162.786 28.3767 162.926 28.6402 163.001C28.9036 163.077 29.1817 163.085 29.4492 163.026L85.9426 150.524C87.27 150.083 87.27 150.083 86.6063 144.766C86.2516 141.961 86.0793 138.828 85.56 137.277C84.5796 134.427 82.1932 133.789 79.2697 134.465C79.48 133.186 78.0537 126.685 84.0223 120.641C97.0639 107.544 101.102 89.4404 96.808 73.1637C96.7979 73.1207 96.7675 73.0877 96.7523 73.0472C96.5019 72.3967 96.1617 71.7844 95.7415 71.2283L121.039 35.564ZM75.9587 78.4457C73.8889 78.6281 71.8901 78.7548 68.5436 78.8612L67.5151 73.2144C72.1511 66.7696 89.0129 43.43 98.2089 30.6873C100.691 32.4471 103.177 34.2018 105.667 35.9516C96.4356 48.7069 84.7468 66.3415 75.9587 78.4457ZM55.084 78.9802L54.2379 77.7871C54.8433 75.2613 55.388 73.9111 56.3 71.9148L64.3307 74.1289L65.2047 78.9448C62.0025 79.0107 58.6509 79.0309 55.084 78.9802ZM89.1624 24.3717C91.2834 25.8363 93.3988 27.309 95.5084 28.7898C54.096 86.1445 67.9407 66.7898 65.0932 70.9192L57.8327 68.9178C60.67 63.8968 64.9133 58.4273 89.1624 24.3717ZM51.7983 74.3544L51.0889 73.3563C52.5051 70.3771 56.4849 62.6605 59.3881 57.0847C59.6617 57.7712 59.9404 58.5287 60.2064 59.276C56.8649 64.1476 53.7692 68.2794 51.7983 74.3544ZM67.2896 16.6526C70.9553 18.9428 72.9896 24.0094 72.1283 28.7012C72.1207 28.7341 72.1156 28.767 72.1131 28.8025C71.462 34.1706 66.5195 38.8168 61.0931 39.1613C55.6337 39.4577 50.2099 35.5817 48.7557 30.2617C45.9108 19.7661 57.6908 10.7094 67.2896 16.6526ZM50.0376 38.224C55.4843 43.2172 63.0513 44.0304 69.1972 39.4906C69.6279 41.2868 70.056 43.0804 70.4968 44.8714L62.5295 56.0232C60.9259 51.9268 60.2495 51.9116 59.3679 51.9116C59.0664 51.9114 58.7707 51.994 58.5129 52.1504C58.2552 52.3067 58.0453 52.5308 57.9061 52.7982C57.6021 53.3809 51.6919 64.6745 48.9153 70.2935L44.3021 63.7954C50.4809 37.9985 48.2693 46.6676 50.0376 38.224ZM6.4592 27.4193C10.3884 29.5042 16.7724 30.5353 21.5427 37.4462L47.5499 74.063C47.5964 74.269 47.6833 74.4637 47.8054 74.6359C47.9276 74.8081 48.0827 74.9543 48.2617 75.0663L51.0003 78.9245C46.5669 78.8308 39.9929 78.6256 35.6001 78.0378L11.0977 43.4756C7.23947 37.8136 7.68027 33.0889 6.4592 27.4193ZM92.5926 101.089C90.4899 107.3 86.7152 113.256 81.679 118.318C74.4412 125.647 76.2373 133.69 75.9688 135.36C62.9475 138.514 52.8851 140.505 39.9701 143.043C39.9296 136.31 40.0715 135.722 39.8435 134.926C39.5954 133.781 38.954 132.759 38.0307 132.038C37.1074 131.316 35.9606 130.941 34.7895 130.977C32.9925 131.001 31.1953 130.944 29.4036 130.805C27.7282 130.682 26.1606 129.932 25.0138 128.705C23.8671 127.477 23.2255 125.862 23.2172 124.183V113.365C23.2172 110.834 21.6035 108.605 19.1943 107.812C17.3652 107.224 15.4399 106.583 13.0636 105.793C12.7481 105.692 12.4596 105.521 12.2193 105.292C11.979 105.064 11.7932 104.785 11.6756 104.475C11.5581 104.165 11.5118 103.833 11.5403 103.503C11.5687 103.173 11.6712 102.853 11.84 102.568C21.34 85.5466 20.2532 91.8242 20.5192 77.8732L20.5471 77.8858C30.1991 83.2109 73.1897 83.2616 82.9076 80.7637C86.4441 79.8061 91.0143 78.2633 94.1733 76.3811C95.837 84.6119 95.2899 93.1364 92.5926 101.089ZM88.7824 75.3348C86.5176 76.2747 82.9051 77.483 80.4123 77.9086C80.5643 77.6882 104.155 43.6934 108.383 37.8516C109.953 38.9409 111.517 40.0176 113.08 41.0841C112.923 41.3045 89.3043 74.6052 88.7824 75.3348Z" />
<path d="M32.3853 66.653L32.3879 66.6556C33.2239 67.7779 33.6951 68.6366 34.7185 68.6366C36.046 68.6366 36.8491 67.1268 36.0612 66.0273L35.1163 64.71C35.096 64.6846 35.0631 64.6771 35.0428 64.6517L32.1497 60.7453C31.8894 60.3939 31.5001 60.1603 31.0675 60.096C30.635 60.0316 30.1945 60.1417 29.8431 60.4021C29.4917 60.6624 29.2582 61.0517 29.1938 61.4843C29.1294 61.9168 29.2395 62.3573 29.4999 62.7087C30.9388 64.6847 31.7697 65.8272 32.3879 66.653H32.3853ZM84.0349 91.1327C83.8188 91.1125 83.6007 91.1358 83.3936 91.201C83.1866 91.2662 82.9946 91.3722 82.8289 91.5125C82.6633 91.6529 82.5274 91.825 82.4291 92.0186C82.3308 92.2122 82.2721 92.4234 82.2565 92.64C81.646 99.7987 78.9618 106.624 74.5324 112.281C74.3985 112.451 74.2994 112.646 74.2407 112.854C74.1821 113.062 74.165 113.28 74.1906 113.495C74.2161 113.71 74.2837 113.918 74.3895 114.106C74.4953 114.295 74.6373 114.461 74.8073 114.595C74.9773 114.729 75.172 114.828 75.3803 114.887C75.5886 114.945 75.8064 114.962 76.0213 114.937C76.2362 114.911 76.444 114.844 76.6327 114.738C76.8215 114.632 76.9876 114.49 77.1215 114.32C81.9511 108.155 84.8775 100.715 85.5423 92.9111C85.5603 92.6953 85.5356 92.478 85.4696 92.2718C85.4036 92.0656 85.2975 91.8744 85.1575 91.7092C85.0175 91.544 84.8463 91.4081 84.6536 91.3091C84.461 91.2102 84.2508 91.1502 84.0349 91.1327Z" />
</symbol>

  <symbol viewBox="0 0 186 160" xmlns="http://www.w3.org/2000/svg" id="iconEngineering">
<path d="M155 1.27376L42.0598 0.769974C8.43273 0.479216 0.0756052 10.0368 0.965151 33.7897C2.19727 66.3401 2.1397 99.0288 3.49561 131.887C4.41106 154.143 13.39 159.236 35.9914 159.236L145.04 159.054C171.243 159 181.888 153.662 182.548 128.415L185.067 31.7025C185.714 6.76073 175.843 1.36876 155 1.27376ZM145.034 156.176L35.9856 156.357C12.0571 156.357 7.11712 149.903 6.37439 131.769C5.07894 100.595 5.09909 70.1516 3.97924 37.7106L182.006 38.675L179.672 128.343C179.079 151 170.935 156.127 145.034 156.176ZM182.188 31.6306L182.078 35.7962L3.88136 34.8289C3.0753 12.9357 8.23984 3.37528 42.0483 3.64876L154.989 4.15255C174.012 4.24467 182.804 8.03028 182.188 31.6306Z" />
<path d="M19.9766 16.9488C18.4797 18.0513 19.85 21.8369 21.1569 23.3512C25.9789 28.9303 33.9186 24.3703 33.5415 18.3363C33.0291 10.2297 21.2376 9.19619 19.9766 16.9488ZM22.3718 19.6807C22.5498 19.5178 22.6839 19.3126 22.7619 19.0843C22.8399 18.8559 22.8592 18.6116 22.818 18.3738C21.9918 13.6353 30.3173 12.9127 30.6685 18.5177C30.9477 23.0576 23.84 25.1879 22.3718 19.6807ZM42.1347 16.9488C39.7107 18.7336 43.1509 25.8845 48.5832 25.8845C52.4954 25.8845 55.9442 22.2515 55.6995 18.3363C55.1871 10.2297 43.3985 9.19619 42.1347 16.9488ZM44.5298 19.6807C44.7078 19.5178 44.8419 19.3126 44.9199 19.0843C44.9979 18.8559 45.0172 18.6116 44.976 18.3738C44.1498 13.6353 52.4753 12.9127 52.8265 18.5177C53.1201 23.2735 45.9462 24.9921 44.5298 19.6807ZM74.95 12.1469C71.032 10.5492 66.5353 12.7371 65.8501 16.9516C63.6766 18.5666 66.5957 25.7176 72.1316 25.8816L72.3044 25.8845C76.2138 25.8845 79.6626 22.2572 79.4179 18.3363C79.3133 16.9939 78.841 15.7062 78.0529 14.6144C77.2648 13.5226 76.1912 12.6689 74.95 12.1469ZM72.2123 23.0029C70.3698 22.951 68.7088 21.4138 68.2453 19.6779C68.4232 19.5155 68.5574 19.3109 68.6354 19.083C68.7134 18.855 68.7327 18.6111 68.6915 18.3738C68.2424 15.7973 71.0723 13.6698 73.8618 14.8156C75.3415 15.4201 76.4412 16.943 76.542 18.5177C76.6974 21.0395 74.0691 23.2677 72.2123 23.0029ZM150.259 10.981C146.18 9.29982 102.552 10.8285 99.673 10.9235C95.8903 11.0271 90.1701 11.1883 88.4774 15.7253C86.0477 22.2573 92.9885 25.7866 99.9004 25.9709C114.493 26.3538 129.728 25.7435 145.172 23.9557C157.531 22.5221 156.328 13.4885 150.259 10.981ZM126.428 13.2236L126.423 13.2294L126.417 13.2236H126.428ZM116.733 15.9901C116.721 16.0016 116.727 16.0189 116.715 16.0304C116.684 15.9757 116.692 15.9066 116.643 15.8577L114.179 13.3935C115.878 13.3618 117.547 13.3388 119.243 13.3157L119.324 13.3963L116.733 15.9901ZM108.24 15.1179L106.729 13.6065C107.765 13.5748 108.802 13.546 109.841 13.5201L108.24 15.1179ZM93.8003 14.5392C94.281 14.3751 94.7963 14.2485 95.3376 14.1535L94.376 15.115L93.8003 14.5392ZM144.841 21.0942C129.998 22.8157 114.919 23.4894 99.9753 23.0921C98.32 23.0489 95.9421 22.6718 94.0248 21.8456C94.0683 21.7432 94.0853 21.6315 94.0743 21.5208C94.0632 21.4101 94.0244 21.304 93.9615 21.2123L95.0727 20.101C95.1396 20.0341 95.1927 19.9547 95.2289 19.8673C95.2651 19.7798 95.2838 19.6861 95.2838 19.5915C95.2838 19.4969 95.2651 19.4032 95.2289 19.3157C95.1927 19.2283 95.1396 19.1489 95.0727 19.0819C95.0058 19.015 94.9264 18.962 94.8389 18.9257C94.7515 18.8895 94.6578 18.8709 94.5632 18.8709C94.4685 18.8709 94.3748 18.8895 94.2874 18.9257C94.2 18.962 94.1205 19.015 94.0536 19.0819L92.977 20.1586L90.8956 18.0772C90.9704 16.6695 91.5347 15.8088 92.4242 15.1956L93.3656 16.1369C93.2399 16.2713 93.171 16.449 93.1731 16.633C93.1752 16.8169 93.2483 16.993 93.3771 17.1244C93.4411 17.1902 93.5174 17.2426 93.6017 17.2788C93.686 17.315 93.7767 17.3342 93.8684 17.3353C93.9602 17.3364 94.0512 17.3193 94.1364 17.2851C94.2215 17.2509 94.299 17.2002 94.3645 17.1359L95.9939 18.7653C96.1291 18.9004 96.3123 18.9763 96.5035 18.9763C96.6946 18.9763 96.8779 18.9004 97.013 18.7653C97.1482 18.6301 97.2241 18.4469 97.2241 18.2557C97.2241 18.0646 97.1482 17.8813 97.013 17.7462L95.3923 16.1254L97.2923 14.2254L100.381 17.3144C100.188 17.5936 100.18 17.965 100.43 18.2154C100.672 18.4572 100.977 18.5062 101.331 18.2644L101.374 18.3076C101.51 18.4427 101.693 18.5186 101.884 18.5186C102.075 18.5186 102.258 18.4427 102.393 18.3076C102.529 18.1724 102.605 17.9891 102.605 17.798C102.605 17.6069 102.529 17.4236 102.393 17.2885L102.385 17.2798L104.725 14.9394C104.86 14.8042 104.936 14.6209 104.936 14.4298C104.936 14.2387 104.86 14.0554 104.725 13.9203C104.658 13.8534 104.579 13.8003 104.492 13.7641C104.404 13.7279 104.31 13.7092 104.216 13.7092C104.025 13.7092 103.841 13.7851 103.706 13.9203L101.366 16.2607L98.9216 13.8166L99.7507 13.7907C103.343 13.6842 104.783 13.6497 104.783 13.6497C104.8 13.6698 104.791 13.6986 104.812 13.7159L107.23 16.1341C107.104 16.268 107.035 16.4455 107.038 16.6293C107.041 16.813 107.115 16.9884 107.244 17.1186C107.311 17.1856 107.39 17.2388 107.478 17.2751C107.565 17.3114 107.659 17.3301 107.754 17.3301C107.848 17.3301 107.942 17.3114 108.03 17.2751C108.117 17.2388 108.196 17.1856 108.263 17.1186L108.292 17.0898C108.577 17.251 108.836 17.3144 109.136 17.0179C109.369 16.7847 109.36 16.4479 109.208 16.1744L111.804 13.5777C111.839 13.5432 111.83 13.4885 111.859 13.4482C111.974 13.4453 112.089 13.4395 112.207 13.4395L115.633 16.8653C115.7 16.9323 115.779 16.9855 115.867 17.0218C115.954 17.058 116.048 17.0767 116.143 17.0767C116.237 17.0767 116.331 17.058 116.418 17.0218C116.506 16.9855 116.585 16.9323 116.652 16.8653C116.664 16.8538 116.658 16.8365 116.669 16.825C116.701 16.8797 116.692 16.9488 116.741 16.9977C116.808 17.0647 116.888 17.1179 116.975 17.1542C117.062 17.1905 117.156 17.2091 117.251 17.2091C117.346 17.2091 117.439 17.1905 117.527 17.1542C117.614 17.1179 117.694 17.0647 117.76 16.9977L120.351 14.4039L122.352 16.4076C122.487 16.5427 122.671 16.6186 122.862 16.6186C123.053 16.6186 123.236 16.5427 123.371 16.4076C123.506 16.2724 123.582 16.0891 123.582 15.898C123.582 15.7069 123.506 15.5236 123.371 15.3885L121.264 13.2783L124.419 13.238L125.415 14.2341L124.16 15.4892C124.093 15.5561 124.04 15.6356 124.004 15.723C123.968 15.8104 123.949 15.9041 123.949 15.9988C123.949 16.0934 123.968 16.1871 124.004 16.2745C124.04 16.362 124.093 16.4414 124.16 16.5083C124.227 16.5752 124.306 16.6283 124.394 16.6645C124.481 16.7007 124.575 16.7194 124.67 16.7194C124.764 16.7194 124.858 16.7007 124.945 16.6645C125.033 16.6283 125.112 16.5752 125.179 16.5083L126.434 15.2532L127.911 16.73C127.978 16.7969 128.057 16.85 128.145 16.8862C128.232 16.9224 128.326 16.941 128.421 16.941C128.515 16.941 128.609 16.9224 128.696 16.8862C128.784 16.85 128.863 16.7969 128.93 16.73C128.997 16.6631 129.05 16.5836 129.086 16.4962C129.123 16.4088 129.141 16.3151 129.141 16.2204C129.141 16.1258 129.123 16.0321 129.086 15.9447C129.05 15.8572 128.997 15.7778 128.93 15.7109L127.453 14.2341L128.504 13.1833L129.825 13.166L130.223 13.5633L129.759 14.0268C129.692 14.0937 129.639 14.1731 129.603 14.2606C129.567 14.348 129.548 14.4417 129.548 14.5363C129.548 14.631 129.567 14.7247 129.603 14.8121C129.639 14.8995 129.692 14.979 129.759 15.0459C129.826 15.1128 129.906 15.1659 129.993 15.2021C130.08 15.2383 130.174 15.2569 130.269 15.2569C130.363 15.2569 130.457 15.2383 130.545 15.2021C130.632 15.1659 130.711 15.1128 130.778 15.0459L131.242 14.5824L131.867 15.2071C132.002 15.3422 132.185 15.4182 132.376 15.4182C132.567 15.4182 132.75 15.3422 132.886 15.2071C133.021 15.072 133.097 14.8887 133.097 14.6976C133.097 14.5064 133.021 14.3231 132.886 14.188L132.261 13.5633L132.693 13.1286C143.949 13.0048 146.735 12.6162 149.177 13.6238C152.758 15.1322 153.846 20.0636 144.841 21.0942ZM133.925 72.4633C131.046 70.4568 122.87 60.5019 117.568 66.5877C115.152 69.3657 115.509 74.1704 118.4 77.766C122.715 83.1407 131.092 85.533 132.578 91.8203C134.486 99.9442 123.826 105.82 119.067 110.486C117.732 111.793 115.878 113.84 115.164 116.515C113.998 120.899 116.606 125.28 121.192 125.28C125.519 125.28 128.694 122.5 142.576 113C147.884 109.364 152.769 105.621 154.266 99.8089C157.908 85.6367 139.351 76.2547 133.925 72.4633ZM135.33 96.2162L136.573 97.4598C136.314 97.3533 136.021 97.3533 135.81 97.5663L134.351 99.0259C134.786 98.0903 135.117 97.1518 135.33 96.2162ZM124.287 109.758C124.315 109.804 124.307 109.862 124.347 109.902L122.824 111.425L122.591 111.192C123.15 110.702 123.708 110.224 124.287 109.758ZM120.006 113.688C120.328 113.316 120.68 112.936 121.08 112.545C121.218 112.409 121.376 112.286 121.517 112.153L121.805 112.441L120.282 113.964L120.006 113.688ZM119.116 114.833L120.933 116.65L118.759 118.823L117.855 117.919C117.884 117.698 117.887 117.476 117.945 117.257C118.158 116.457 118.549 115.657 119.116 114.833ZM151.471 99.0921C150.225 103.94 145.78 107.311 140.946 110.622C128.09 119.419 121.514 125.174 118.541 121.075L118.756 120.859L118.99 121.092C119.125 121.227 119.308 121.303 119.499 121.303C119.69 121.303 119.874 121.227 120.009 121.092C120.144 120.957 120.22 120.773 120.22 120.582C120.22 120.391 120.144 120.208 120.009 120.073L119.776 119.84L121.949 117.666L122.09 117.807C122.225 117.942 122.409 118.018 122.6 118.018C122.791 118.018 122.974 117.942 123.109 117.807C123.244 117.672 123.32 117.489 123.32 117.298C123.32 117.106 123.244 116.923 123.109 116.788L122.968 116.647L123.55 116.065C123.617 115.999 123.67 115.919 123.706 115.832C123.742 115.744 123.761 115.651 123.761 115.556C123.761 115.461 123.742 115.368 123.706 115.28C123.67 115.193 123.617 115.113 123.55 115.046C123.483 114.979 123.403 114.926 123.316 114.89C123.228 114.854 123.135 114.835 123.04 114.835C122.946 114.835 122.852 114.854 122.764 114.89C122.677 114.926 122.598 114.979 122.531 115.046L121.949 115.628L121.298 114.977L122.821 113.454L124.742 115.375C124.877 115.51 125.06 115.586 125.251 115.586C125.442 115.586 125.625 115.51 125.761 115.375C125.896 115.239 125.972 115.056 125.972 114.865C125.972 114.674 125.896 114.491 125.761 114.355L123.84 112.435L125.363 110.912L126.673 112.222C126.808 112.357 126.992 112.433 127.183 112.433C127.374 112.433 127.557 112.357 127.692 112.222C127.827 112.087 127.903 111.904 127.903 111.713C127.903 111.522 127.827 111.338 127.692 111.203L125.366 108.877L125.507 108.762C126.725 107.789 127.948 106.761 129.137 105.685L130.441 106.989L128.697 108.739C128.562 108.874 128.486 109.057 128.486 109.248C128.486 109.44 128.562 109.623 128.697 109.758C128.832 109.893 129.015 109.969 129.206 109.969C129.398 109.969 129.581 109.893 129.716 109.758L131.489 107.985C131.841 108.235 132.16 108.183 132.402 107.941C132.655 107.688 132.647 107.311 132.445 107.029L133.637 105.837C133.772 105.702 133.848 105.519 133.848 105.328C133.848 105.136 133.772 104.953 133.637 104.818C133.502 104.683 133.319 104.607 133.127 104.607C132.936 104.607 132.753 104.683 132.618 104.818L131.458 105.978L130.185 104.706C131.003 103.9 130.473 104.565 131.74 103.05C131.818 103.076 131.881 103.143 131.964 103.143C132.059 103.143 132.153 103.124 132.24 103.088C132.328 103.052 132.407 102.999 132.474 102.932L133.634 101.772L134.383 102.521C135.056 103.194 136.07 102.172 135.402 101.502L134.653 100.753L136.83 98.5768C137.074 98.3321 137.066 97.9723 136.884 97.693C137.235 97.9319 137.538 97.8859 137.782 97.6441C137.849 97.5772 137.903 97.4978 137.939 97.4104C137.975 97.3229 137.994 97.2292 137.994 97.1345C137.994 97.0399 137.975 96.9461 137.939 96.8587C137.903 96.7712 137.849 96.6918 137.782 96.625L135.612 94.4544C135.701 93.3316 135.629 92.2262 135.379 91.1582C133.571 83.4776 124.687 80.9903 120.645 75.9582C118.446 73.2233 118.463 69.9444 119.741 68.4733C122.81 64.9468 129.247 72.7023 132.278 74.821C138.183 78.9463 154.525 87.2373 151.471 99.0921ZM56.6063 102.109C53.4742 98.8129 52.0435 94.9668 52.7833 91.8203C54.2716 85.5215 62.6029 83.1954 66.9613 77.766C69.8516 74.1704 70.2086 69.3657 67.7933 66.5877C65.7839 64.2732 62.4906 64.135 58.9756 66.2307C56.0392 67.9868 54.1133 70.5979 51.4389 72.4633C46.6371 75.8171 27.4068 85.4466 31.1032 99.806C33.0521 107.389 39.6906 110.878 56.0997 122.102C59.8392 124.664 64.5633 126.746 68.0956 123.936C70.1107 122.33 70.9571 119.347 70.2029 116.515C68.5965 110.509 61.1376 106.873 56.6063 102.109ZM50.4486 77.9935L49.5792 77.1241C50.4371 76.5771 51.2863 76.0186 52.1298 75.4515L52.5588 75.8804L50.4486 77.9935ZM44.075 80.7571L44.5557 81.2379L42.1433 83.6503L41.3344 82.8413C41.8353 82.4182 42.3391 81.995 42.8486 81.615C43.243 81.3185 43.6662 81.045 44.075 80.7571ZM36.7513 87.7583L38.778 89.7821L36.0029 92.5573L34.7247 91.2791C35.2738 90.0371 35.9532 88.8569 36.7513 87.7583ZM33.956 99.285L34.5663 99.8953L34.2727 100.189C34.1604 99.8895 34.0424 99.5959 33.956 99.285ZM66.2963 121.685C64.1171 123.424 60.4323 121.587 57.7204 119.727C42.5521 109.352 37.5229 106.511 34.9032 101.591L35.5826 100.911L36.7571 102.086C36.8922 102.221 37.0755 102.297 37.2666 102.297C37.4578 102.297 37.6411 102.221 37.7762 102.086C37.9113 101.951 37.9873 101.768 37.9873 101.576C37.9873 101.385 37.9113 101.202 37.7762 101.067L36.6016 99.8924L40.9285 95.5627C40.9954 95.4958 41.0485 95.4164 41.0847 95.3289C41.1209 95.2415 41.1395 95.1478 41.1395 95.0532C41.1395 94.9585 41.1209 94.8648 41.0847 94.7774C41.0485 94.69 40.9954 94.6105 40.9285 94.5436C40.8615 94.4767 40.7821 94.4236 40.6947 94.3874C40.6073 94.3512 40.5135 94.3326 40.4189 94.3326C40.3243 94.3326 40.2306 94.3512 40.1432 94.3874C40.0557 94.4236 39.9763 94.4767 39.9094 94.5436L35.5826 98.8733L33.5933 96.8841C33.5357 95.4936 33.7689 94.1204 34.1892 92.7789L34.9838 93.5735L34.8916 93.6656C34.8247 93.7325 34.7717 93.8119 34.7354 93.8994C34.6992 93.9868 34.6806 94.0805 34.6806 94.1751C34.6806 94.3662 34.7565 94.5495 34.8916 94.6847C35.0268 94.8198 35.2101 94.8957 35.4012 94.8957C35.5923 94.8957 35.7756 94.8198 35.9107 94.6847L36.0029 94.5926L37.1803 95.77C37.2472 95.8369 37.3266 95.89 37.4141 95.9262C37.5015 95.9624 37.5952 95.981 37.6898 95.981C37.7845 95.981 37.8782 95.9624 37.9656 95.9262C38.053 95.89 38.1325 95.8369 38.1994 95.77C38.2663 95.7031 38.3194 95.6236 38.3556 95.5362C38.3918 95.4488 38.4104 95.3551 38.4104 95.2604C38.4104 95.1658 38.3918 95.0721 38.3556 94.9847C38.3194 94.8972 38.2663 94.8178 38.1994 94.7509L37.0219 93.5735L39.9324 90.663C39.9497 90.663 39.9641 90.6832 39.9813 90.6832C40.0759 90.6835 40.1697 90.6651 40.2571 90.629C40.3446 90.5929 40.424 90.5399 40.4909 90.473C40.5611 90.3998 40.6145 90.3122 40.6473 90.2162C40.6801 90.1202 40.6916 90.0183 40.6809 89.9174L42.7162 87.8821C42.7831 87.8152 42.8362 87.7357 42.8724 87.6483C42.9086 87.5609 42.9273 87.4672 42.9273 87.3726C42.9273 87.2779 42.9086 87.1842 42.8724 87.0968C42.8362 87.0094 42.7831 86.9299 42.7162 86.863C42.6493 86.7961 42.5698 86.743 42.4824 86.7068C42.395 86.6706 42.3013 86.6519 42.2066 86.6519C42.112 86.6519 42.0183 86.6706 41.9309 86.7068C41.8435 86.743 41.764 86.7961 41.6971 86.863L39.7971 88.763L37.6323 86.5982C38.4412 85.6021 39.325 84.6665 40.2577 83.7971L41.1242 84.6636L40.7903 84.9976C40.7234 85.0645 40.6703 85.1439 40.6341 85.2313C40.5979 85.3188 40.5792 85.4125 40.5792 85.5071C40.5792 85.6017 40.5979 85.6954 40.6341 85.7829C40.6703 85.8703 40.7234 85.9497 40.7903 86.0166C40.8572 86.0836 40.9366 86.1366 41.0241 86.1729C41.1115 86.2091 41.2052 86.2277 41.2998 86.2277C41.3945 86.2277 41.4882 86.2091 41.5756 86.1729C41.663 86.1366 41.7425 86.0836 41.8094 86.0166L42.1433 85.6827L42.3016 85.841C42.4368 85.9762 42.6201 86.0521 42.8112 86.0521C43.0023 86.0521 43.1856 85.9762 43.3207 85.841C43.4559 85.7059 43.5318 85.5226 43.5318 85.3315C43.5318 85.1404 43.4559 84.9571 43.3207 84.8219L43.1624 84.6636L45.5748 82.2512L46.7321 83.4085C46.799 83.4754 46.8785 83.5285 46.9659 83.5647C47.0533 83.6009 47.147 83.6195 47.2416 83.6195C47.3363 83.6195 47.43 83.6009 47.5174 83.5647C47.6048 83.5285 47.6843 83.4754 47.7512 83.4085C47.8181 83.3415 47.8712 83.2621 47.9074 83.1747C47.9436 83.0872 47.9623 82.9936 47.9623 82.8989C47.9623 82.8043 47.9436 82.7106 47.9074 82.6232C47.8712 82.5357 47.8181 82.4563 47.7512 82.3894L45.2783 79.9165C46.3003 79.2342 47.3309 78.5692 48.35 77.9215L49.4324 79.0039L48.7357 79.7006C48.6006 79.8357 48.5247 80.019 48.5247 80.2101C48.5247 80.4013 48.6006 80.5845 48.7357 80.7197C48.8709 80.8548 49.0542 80.9307 49.2453 80.9307C49.4364 80.9307 49.6197 80.8548 49.7548 80.7197L53.6268 76.8448C53.7362 76.9082 53.8427 76.9859 53.9694 76.9859C54.1119 76.9861 54.2513 76.9441 54.3699 76.865C54.4885 76.7859 54.5809 76.6734 54.6355 76.5418C54.6901 76.4101 54.7043 76.2652 54.6765 76.1254C54.6486 75.9857 54.5798 75.8573 54.4789 75.7566L54.3523 75.63C54.3263 75.4976 54.3004 75.3594 54.1968 75.2557C54.0932 75.1521 53.955 75.1291 53.8226 75.1003L53.3389 74.6166C54.0126 74.1273 54.6574 73.5918 55.285 73.0333C55.2899 73.2049 55.3575 73.3688 55.475 73.4939C55.5418 73.5609 55.6213 73.6141 55.7087 73.6504C55.7961 73.6867 55.8899 73.7054 55.9845 73.7054C56.0792 73.7054 56.1729 73.6867 56.2604 73.6504C56.3478 73.6141 56.4272 73.5609 56.4941 73.4939L56.828 73.16L57.4066 73.7386C57.4736 73.8055 57.553 73.8586 57.6404 73.8948C57.7279 73.931 57.8216 73.9497 57.9162 73.9497C58.0108 73.9497 58.1045 73.931 58.192 73.8948C58.2794 73.8586 58.3588 73.8055 58.4257 73.7386C58.4927 73.6717 58.5457 73.5923 58.5819 73.5048C58.6182 73.4174 58.6368 73.3237 58.6368 73.2291C58.6368 73.1344 58.6182 73.0407 58.5819 72.9533C58.5457 72.8659 58.4927 72.7864 58.4257 72.7195L57.8471 72.1409L59.5974 70.3906L61.1951 71.9883C61.3303 72.1235 61.5136 72.1994 61.7047 72.1994C61.8958 72.1994 62.0791 72.1235 62.2142 71.9883C62.3494 71.8532 62.4253 71.6699 62.4253 71.4788C62.4253 71.2877 62.3494 71.1044 62.2142 70.9692L60.4841 69.2391C60.4938 69.0731 60.4426 68.9093 60.3401 68.7785C60.3776 68.7554 60.415 68.718 60.4524 68.695C61.6442 67.9839 62.7324 67.6269 63.6479 67.6269C64.4597 67.6269 65.1362 67.9062 65.6256 68.4676C66.9009 69.9386 66.9182 73.2147 64.7216 75.9524C60.7259 80.9298 51.7873 83.5121 49.988 91.1524C49.0092 95.3065 50.6645 100.022 54.525 104.084C59.0735 108.866 66.138 112.447 67.4191 117.246C67.8739 118.976 67.4133 120.795 66.2963 121.685ZM107.814 51.0509C104.538 50.36 101.585 52.7839 99.4657 57.8276C97.0476 63.5765 94.3876 69.3485 91.8168 74.9276C89.0474 80.9327 86.1859 87.1394 83.6036 93.3662C80.7018 100.365 78.5859 106.306 76.945 112.061C76.7694 112.668 76.4873 113.5 76.1591 114.476C73.905 121.123 72.0885 127.321 74.6016 130.117C78.606 134.567 84.5076 130.546 87.9535 125.727C91.906 120.217 92.05 118.461 111.182 63.2685C111.85 61.331 112.613 59.1345 112.4 56.7883C112.181 54.4335 110.656 51.6324 107.814 51.0509ZM106.628 53.8635L104.003 56.4918L103.626 56.1147C104.42 54.9344 105.445 53.9354 106.628 53.8635ZM102.857 57.3813L102.984 57.508L102.604 57.8909C102.687 57.721 102.762 57.5569 102.857 57.3813ZM99.8774 64.0659L101.602 65.7903L97.0994 70.2927C98.0436 68.2286 98.9562 66.1588 99.8774 64.0659ZM93.2821 78.6441L94.5862 79.9482L91.0914 83.443C91.8197 81.8309 92.5509 80.2332 93.2821 78.6441ZM86.9085 92.9833L87.2194 93.2942L86.4335 94.0801C86.586 93.7145 86.7559 93.3489 86.9085 92.9833ZM79.0753 114.833L79.9706 115.729L78.1857 117.513C78.442 116.722 78.6895 115.979 78.8853 115.403L79.0753 114.833ZM108.462 62.3271C89.5368 116.915 89.3382 118.858 85.613 124.051C83.5518 126.93 79.3085 130.868 76.8327 128.266L77.3163 127.782C77.3815 127.846 77.4585 127.896 77.543 127.929C77.6275 127.963 77.7178 127.979 77.8087 127.978C77.8997 127.977 77.9894 127.958 78.0729 127.921C78.1564 127.885 78.2319 127.833 78.2951 127.768C78.4231 127.638 78.496 127.464 78.4987 127.281C78.5014 127.099 78.4336 126.923 78.3095 126.789L80.8717 124.227C81.0068 124.092 81.0827 123.908 81.0827 123.717C81.0827 123.526 81.0068 123.343 80.8717 123.208C80.7365 123.073 80.5532 122.997 80.3621 122.997C80.171 122.997 79.9877 123.073 79.8526 123.208L77.302 125.758L76.3577 124.817C76.5304 123.441 76.8845 121.872 77.3221 120.326C77.3682 120.297 77.4257 120.306 77.4632 120.266L77.8748 119.854L79.2192 121.198C79.3544 121.333 79.5377 121.409 79.7288 121.409C79.9199 121.409 80.1032 121.333 80.2383 121.198C80.3735 121.063 80.4494 120.88 80.4494 120.689C80.4494 120.498 80.3735 120.314 80.2383 120.179L78.8939 118.835L81.0962 116.633C81.1394 116.641 81.171 116.681 81.2142 116.681C81.3088 116.682 81.4025 116.663 81.4899 116.627C81.5773 116.591 81.6568 116.538 81.7238 116.471C81.8965 116.299 81.9253 116.068 81.885 115.847L84.7379 112.994C84.873 112.859 84.9489 112.675 84.9489 112.484C84.9489 112.293 84.873 112.11 84.7379 111.975C84.6027 111.84 84.4194 111.764 84.2283 111.764C84.0372 111.764 83.8539 111.84 83.7188 111.975L80.981 114.712L79.5676 113.299C79.6107 113.155 79.6712 112.982 79.7057 112.856C80.0023 111.813 80.3362 110.751 80.6673 109.689C80.673 109.683 80.6788 109.686 80.6845 109.683L82.0174 108.35L82.7774 109.11C82.8443 109.177 82.9238 109.23 83.0112 109.266C83.0986 109.303 83.1923 109.321 83.2869 109.321C83.3816 109.321 83.4753 109.303 83.5627 109.266C83.6501 109.23 83.7296 109.177 83.7965 109.11C83.8634 109.043 83.9165 108.964 83.9527 108.877C83.9889 108.789 84.0076 108.695 84.0076 108.601C84.0076 108.506 83.9889 108.412 83.9527 108.325C83.9165 108.238 83.8634 108.158 83.7965 108.091L83.0365 107.331L86.6091 103.759C86.7442 103.623 86.8201 103.44 86.8201 103.249C86.8201 103.058 86.7442 102.875 86.6091 102.74C86.4739 102.604 86.2906 102.528 86.0995 102.528C85.9084 102.528 85.7251 102.604 85.59 102.74L82.0174 106.312L81.836 106.131C82.4895 104.213 83.1948 102.244 83.9836 100.186L85.6619 101.864C85.7971 102 85.9804 102.075 86.1715 102.075C86.3626 102.075 86.5459 102 86.681 101.864C86.8162 101.729 86.8921 101.546 86.8921 101.355C86.8921 101.164 86.8162 100.98 86.681 100.845L84.5536 98.7179L85.043 97.5001L88.2356 94.3076L89.01 95.0819C89.1451 95.2171 89.3284 95.293 89.5195 95.293C89.7106 95.293 89.8939 95.2171 90.0291 95.0819C90.1642 94.9468 90.2401 94.7635 90.2401 94.5724C90.2401 94.3813 90.1642 94.198 90.0291 94.0629L89.2547 93.2885L91.2813 91.2618C91.4165 91.1267 91.4924 90.9434 91.4924 90.7523C91.4924 90.5611 91.4165 90.3778 91.2813 90.2427C91.1462 90.1076 90.9629 90.0316 90.7718 90.0316C90.5807 90.0316 90.3974 90.1076 90.2623 90.2427L88.2356 92.2694L87.5245 91.5583C88.3076 89.7274 89.0877 87.8965 89.9024 86.0771L91.7592 87.931C91.8944 88.0662 92.0777 88.1421 92.2688 88.1421C92.4599 88.1421 92.6432 88.0662 92.7783 87.931C92.9135 87.7959 92.9894 87.6126 92.9894 87.4215C92.9894 87.2304 92.9135 87.0471 92.7783 86.9119L91.2123 85.3488L95.6485 80.9126C95.9421 81.091 96.2242 81.14 96.515 80.8492C96.7539 80.6103 96.7453 80.2591 96.5783 79.9827L99.7421 76.8189C99.8772 76.6838 99.9532 76.5005 99.9532 76.3094C99.9532 76.1183 99.8772 75.935 99.7421 75.7998C99.607 75.6647 99.4237 75.5888 99.2326 75.5888C99.0414 75.5888 98.8581 75.6647 98.723 75.7998L95.6024 78.9204L93.9212 77.2392L94.4279 76.1309C94.946 75.0082 95.47 73.8509 95.9911 72.7109C96.0889 72.7598 96.181 72.8347 96.2904 72.8347C96.3912 72.8347 96.4776 72.7598 96.5697 72.7195L98.3804 74.5274C98.5156 74.6625 98.6989 74.7385 98.89 74.7385C99.0811 74.7385 99.2644 74.6625 99.3995 74.5274C99.5347 74.3923 99.6106 74.209 99.6106 74.0179C99.6106 73.8267 99.5347 73.6435 99.3995 73.5083L97.6579 71.7666L104.17 65.2548C104.237 65.1879 104.29 65.1085 104.326 65.021C104.362 64.9336 104.381 64.8399 104.381 64.7453C104.381 64.6507 104.362 64.5569 104.326 64.4695C104.29 64.3821 104.237 64.3027 104.17 64.2357C104.103 64.1688 104.023 64.1157 103.936 64.0795C103.848 64.0433 103.755 64.0247 103.66 64.0247C103.565 64.0247 103.472 64.0433 103.384 64.0795C103.297 64.1157 103.218 64.1688 103.151 64.2357L102.621 64.7654L100.496 62.6409C100.92 61.6707 101.354 60.7063 101.769 59.7333C101.835 59.8002 101.915 59.8534 102.002 59.8896C102.089 59.9258 102.182 59.9445 102.277 59.9445C102.371 59.9445 102.465 59.9258 102.552 59.8896C102.639 59.8534 102.718 59.8002 102.785 59.7333L104.003 58.5156L104.921 59.4339C104.988 59.5008 105.067 59.5539 105.155 59.5901C105.242 59.6263 105.336 59.645 105.431 59.645C105.525 59.645 105.619 59.6263 105.706 59.5901C105.794 59.5539 105.873 59.5008 105.94 59.4339C106.007 59.367 106.06 59.2876 106.096 59.2001C106.133 59.1127 106.151 59.019 106.151 58.9244C106.151 58.8297 106.133 58.736 106.096 58.6486C106.06 58.5612 106.007 58.4817 105.94 58.4148L105.019 57.4936L107.975 54.5371C108.053 54.4594 108.056 54.3529 108.091 54.2579C108.92 54.8682 109.438 56.0168 109.533 57.0359C109.691 58.7804 109.066 60.5854 108.462 62.3271Z" />
  </symbol>

  <symbol viewBox="0 0 18 18" xmlns="http://www.w3.org/2000/svg" id="iconIg">
    <path d="M9.00033 0.666504C11.2645 0.666504 11.547 0.674837 12.4353 0.716504C13.3228 0.758171 13.927 0.897337 14.4587
                1.104C15.0087 1.31567 15.472 1.60234 15.9353 2.06484C16.3591 2.48142 16.687 2.98533 16.8962 3.5415C17.102 4.07234 17.242
                4.67734 17.2837 5.56484C17.3228 6.45317 17.3337 6.73567 17.3337 8.99984C17.3337 11.264 17.3253 11.5465 17.2837
                12.4348C17.242 13.3223 17.102 13.9265 16.8962 14.4582C16.6876 15.0147 16.3596 15.5187 15.9353 15.9348C15.5186 16.3584
                15.0148 16.6863 14.4587 16.8957C13.9278 17.1015 13.3228 17.2415 12.4353 17.2832C11.547 17.3223 11.2645 17.3332 9.00033
                17.3332C6.73616 17.3332 6.45366 17.3248 5.56533 17.2832C4.67783 17.2415 4.07366 17.1015 3.54199 16.8957C2.9856 16.6869
                2.4816 16.359 2.06533 15.9348C1.6415 15.5183 1.3136 15.0144 1.10449 14.4582C0.897826 13.9273 0.758659 13.3223 0.716992
                12.4348C0.677825 11.5465 0.666992 11.264 0.666992 8.99984C0.666992 6.73567 0.675325 6.45317 0.716992 5.56484C0.758659
                4.6765 0.897826 4.07317 1.10449 3.5415C1.31302 2.98499 1.641 2.48094 2.06533 2.06484C2.48172 1.64086 2.98568 1.31295
                3.54199 1.104C4.07366 0.897337 4.67699 0.758171 5.56533 0.716504C6.45366 0.677337 6.73616 0.666504 9.00033
                0.666504ZM9.00033 4.83317C7.89526 4.83317 6.83545 5.27216 6.05405 6.05356C5.27265 6.83496 4.83366 7.89477 4.83366
                8.99984C4.83366 10.1049 5.27265 11.1647 6.05405 11.9461C6.83545 12.7275 7.89526 13.1665 9.00033 13.1665C10.1054 13.1665
                11.1652 12.7275 11.9466 11.9461C12.728 11.1647 13.167 10.1049 13.167 8.99984C13.167 7.89477 12.728 6.83496 11.9466
                6.05356C11.1652 5.27216 10.1054 4.83317 9.00033 4.83317ZM14.417 4.62484C14.417 4.34857 14.3072 4.08362 14.1119
                3.88827C13.9165 3.69292 13.6516 3.58317 13.3753 3.58317C13.0991 3.58317 12.8341 3.69292 12.6388 3.88827C12.4434 4.08362
                12.3337 4.34857 12.3337 4.62484C12.3337 4.9011 12.4434 5.16606 12.6388 5.36141C12.8341 5.55676 13.0991 5.6665 13.3753
                5.6665C13.6516 5.6665 13.9165 5.55676 14.1119 5.36141C14.3072 5.16606 14.417 4.9011 14.417 4.62484ZM9.00033
                6.49984C9.66337 6.49984 10.2993 6.76323 10.7681 7.23207C11.2369 7.70091 11.5003 8.3368 11.5003 8.99984C11.5003 9.66288
                11.2369 10.2988 10.7681 10.7676C10.2993 11.2364 9.66337 11.4998 9.00033 11.4998C8.33728 11.4998 7.7014 11.2364 7.23256
                10.7676C6.76372 10.2988 6.50033 9.66288 6.50033 8.99984C6.50033 8.3368 6.76372 7.70091 7.23256 7.23207C7.7014 6.76323
                8.33728 6.49984 9.00033 6.49984Z"></path>
  </symbol>
  <symbol viewBox="0 0 18 14" xmlns="http://www.w3.org/2000/svg" id="iconTw">
    <path d="M17.4683 1.71327C16.8321 1.99468 16.1575 2.1795 15.4667 2.26161C16.1948 1.82613 16.7398 1.14078 17 0.333272C16.3167
                0.739939 15.5675 1.02494 14.7867 1.17911C14.2622 0.617921 13.567 0.245741 12.8091 0.120426C12.0513 -0.00488923 11.2733
                0.123681 10.5961 0.48615C9.91883 0.848618 9.38032 1.42468 9.06426 2.12477C8.7482 2.82486 8.67229 3.60976 8.84833
                4.35744C7.46259 4.28798 6.10694 3.92787 4.86941 3.30049C3.63187 2.67311 2.54011 1.79248 1.665 0.715772C1.35524 1.24781
                1.19246 1.85263 1.19333 2.46827C1.19333 3.6766 1.80833 4.74411 2.74333 5.36911C2.19001 5.35169 1.64886 5.20226 1.165
                4.93327V4.9766C1.16517 5.78136 1.44364 6.56129 1.95321 7.18415C2.46277 7.80702 3.17207 8.2345 3.96083 8.3941C3.44718
                8.5333 2.90859 8.55382 2.38583 8.4541C2.60822 9.1468 3.04167 9.7526 3.62549 10.1867C4.20931 10.6208 4.91427 10.8614
                5.64167 10.8749C4.91873 11.4427 4.09098 11.8624 3.20573 12.1101C2.32049 12.3577 1.39511 12.4285 0.4825 12.3183C2.07558
                13.3428 3.93008 13.8867 5.82417 13.8849C12.235 13.8849 15.7408 8.57411 15.7408 3.96827C15.7408 3.81827 15.7367 3.66661
                15.73 3.51827C16.4124 3.02508 17.0013 2.41412 17.4692 1.71411L17.4683 1.71327Z"></path>
  </symbol>
  <symbol viewBox="0 0 18 18" xmlns="http://www.w3.org/2000/svg" id="iconFb">
    <path d="M9.00033 0.666504C4.39783 0.666504 0.666992 4.39734 0.666992 8.99984C0.666992 13.159 3.71449 16.6065 7.69866
                17.2323V11.4082H5.58199V8.99984H7.69866V7.164C7.69866 5.07567 8.94199 3.92234 10.8462 3.92234C11.7578 3.92234 12.7112
                4.08484 12.7112 4.08484V6.13484H11.6612C10.6253 6.13484 10.3028 6.77734 10.3028 7.4365V8.99984H12.6137L12.2445
                11.4082H10.3028V17.2323C14.2862 16.6073 17.3337 13.1582 17.3337 8.99984C17.3337 4.39734 13.6028 0.666504 9.00033
                0.666504Z" />
  </symbol>
  <symbol viewBox="0 0 219 174" xmlns="http://www.w3.org/2000/svg" id="iconQuote">
    <path
      d="M71.4 5.39999C76.6 2.19998 81.2 2.99998 85.2 7.79999C89.6 12.2 89.6 16.6 85.2 21C65.6 40.2 54.4 57.8 51.6 73.8C50.4 80.6 52.4 84 57.6 84C67.2 84 75.2 88 81.6 96C88.4 104 91.8 114.2 91.8 126.6C91.8 140.6 87.6 152 79.2 160.8C71.2 169.6 60.6 174 47.4 174C34.2 174 23 169.2 13.8 159.6C5 149.6 0.600001 136.4 0.600001 120C0.600001 74.8 24.2 36.6 71.4 5.39999ZM198 5.39999C203.2 2.19998 207.8 2.99998 211.8 7.79999C216.2 12.2 216.2 16.6 211.8 21C192.2 40.2 181 57.8 178.2 73.8C177 80.6 179 84 184.2 84C193.8 84 201.8 88 208.2 96C215 104 218.4 114.2 218.4 126.6C218.4 140.6 214.2 152 205.8 160.8C197.8 169.6 187.2 174 174 174C160.8 174 149.6 169.2 140.4 159.6C131.6 149.6 127.2 136.4 127.2 120C127.2 74.8 150.8 36.6 198 5.39999Z">
    </path>
  </symbol>
  <symbol viewBox="0 0 208 155" xmlns="http://www.w3.org/2000/svg" id="iconArrowSpring">
    <path
      d="M9.228 3.88897C17.3766 2.48763 25.6805 2.15876 33.9274 2.91076C39.2057 3.2883 45.0453 3.94244 51.2416 4.83107C57.8799 5.74586 64.4492 7.11874 70.9022 8.93979C74.3729 9.93281 77.7758 11.152 81.0887 12.5896C84.5456 14.0411 87.8665 15.7991 91.011 17.8425C94.257 19.8993 97.2495 22.3311 99.9261 25.0868C102.67 27.8324 105.028 30.9351 106.937 34.3098L107.238 34.8767C107.023 34.9203 106.787 34.9266 106.556 34.9595C97.8492 36.2507 89.8142 40.3299 83.6602 46.5833C80.5735 49.7887 78.1768 53.5911 76.6163 57.759C74.9787 62.1236 74.4925 66.8405 75.2041 71.4595C75.5052 73.9058 76.195 76.2909 77.2474 78.525C78.4085 81.0371 80.1268 83.2556 82.2719 85.0117C84.3972 86.6647 86.8458 87.8536 89.4575 88.5007C92.0692 89.1478 94.7852 89.2385 97.4279 88.7669C102.215 87.9101 106.54 85.4053 109.651 81.6877C112.52 78.2999 114.688 74.3775 116.031 70.1447C117.388 65.9942 118.093 61.6559 118.122 57.283C118.146 51.8253 117.238 46.398 115.436 41.2342C116.671 41.3127 117.899 41.4729 119.114 41.7139C126.29 43.0841 133.081 46.0264 138.995 50.3281C144.536 54.302 149.447 59.0861 153.562 64.5178C157.179 69.2427 160.208 74.3869 162.58 79.8365C164.489 84.5133 165.973 89.35 167.013 94.2876C168.721 101.996 169.577 109.863 169.566 117.747C169.601 123.036 169.235 128.318 168.469 133.547C167.826 137.739 167.216 140.753 166.684 143.08C166.258 145.107 165.921 146.432 165.705 147.467L165.117 145.995C163.439 141.801 161.851 138.034 160.435 134.889C157.594 128.614 155.505 124.726 154.74 125.007C153.974 125.289 154.775 129.369 156.653 135.91C157.581 139.196 158.783 143.055 160.198 147.331L160.735 148.953C160.958 149.653 161.241 150.333 161.581 150.986C161.806 151.401 162.067 151.796 162.36 152.167C162.732 152.639 163.168 153.058 163.656 153.411C164.659 154.138 165.867 154.528 167.104 154.524C168.677 154.421 170.215 154.022 171.637 153.35L175.057 152.068C193.894 144.606 208.657 137.443 207.956 136.036C207.256 134.629 191.413 139.514 172.56 146.965L170.088 147.971C170.589 146.954 171.022 145.906 171.385 144.832C172.532 141.652 173.435 138.389 174.086 135.07C175.214 129.619 175.836 124.072 175.944 118.501C176.176 110.165 175.423 101.825 173.7 93.6528C172.588 88.2706 170.976 83.0007 168.884 77.9117C166.297 71.8751 162.964 66.1809 158.964 60.9619C154.381 54.9067 148.898 49.5829 142.706 45.1762C135.848 40.2232 127.973 36.8605 119.661 35.3357C117.267 34.8864 114.836 34.6797 112.404 34.7188C112.004 33.9487 111.605 33.1786 111.157 32.4461C108.964 28.6941 106.275 25.2507 103.165 22.2086C100.161 19.247 96.8228 16.6427 93.2188 14.4482C89.7997 12.3223 86.1959 10.5095 82.4517 9.03224C78.9648 7.59862 75.388 6.39609 71.7447 5.43252C65.1022 3.70036 58.3435 2.45846 51.5237 1.71696C45.182 0.978884 39.3012 0.505277 33.8812 0.29614C25.4606 -0.170631 17.0242 0.605375 8.84519 2.59903C6.68401 3.15811 4.57005 3.88224 2.52197 4.76502C1.14757 5.40758 0.489987 5.73679 0.507518 5.88675C0.525048 6.03672 3.60377 4.99154 9.26043 3.91029L9.228 3.88897ZM108.08 41.5446C108.729 41.4405 109.389 41.3899 110.049 41.3393C111.847 46.3174 112.711 51.5784 112.596 56.8581C112.504 60.7134 111.821 64.5284 110.571 68.1711C109.378 71.7573 107.485 75.069 105.001 77.9162C102.656 80.6347 99.4284 82.4464 95.8753 83.0393C94.1339 83.3511 92.344 83.2932 90.6223 82.8691C88.9006 82.4451 87.2856 81.6645 85.8826 80.5783C83.2714 78.1135 81.6678 74.7729 81.3842 71.2069C80.8665 67.5373 81.2991 63.8021 82.6408 60.3575C83.9987 56.9487 86.0339 53.8524 88.6246 51.2539C91.2103 48.6291 94.2128 46.448 97.5124 44.7975C100.81 43.1207 104.372 42.0137 108.047 41.5233"
      fill-opacity="0.1" />
  </symbol>
</svg>