<svg width="182" height="174" viewBox="0 0 182 174" fill="none" xmlns="http://www.w3.org/2000/svg">
<path d="M42.3404 20.7486C15.1816 38.1532 7.61792 75.5972 28.4872 101.904C30.2139 104.072 33.4914 101.471 31.7731 99.2969C12.5635 75.0914 19.3812 40.4416 44.6037 24.2748C91.9947 -6.18665 145.304 50.7742 115.725 96.6872C105.443 112.611 85.9175 122.924 64.5453 118.976C61.8266 118.473 61.0554 122.594 63.7881 123.1C86.5098 127.288 107.865 116.587 119.246 98.9588C151.537 48.8379 93.0648 -11.8727 42.3404 20.7486Z" fill="white"/>
<path d="M136.105 113.502C133.35 110.68 131.481 108.11 128.179 105.424C134.754 95.7153 138.648 84.4418 139.467 72.7444C144.281 6.42602 58.4625 -26.1338 18.596 28.4353C4.3069 43.1268 -2.33472 65.1612 1.75028 85.3654C11.8147 135.12 74.2995 157.395 116.846 122.091C118.15 123.167 119.444 124.466 120.749 125.545C115.842 132.019 121.735 139.999 128 145.425C150.626 165.012 158.148 176.971 167.279 172.008C172.172 171.257 173.597 167.842 178.59 163.419C180.409 161.604 181.434 159.143 181.442 156.573C181.449 154.004 180.438 151.536 178.629 149.711C144.505 116.662 144.485 111.53 136.108 113.499L136.105 113.502ZM113.736 115.419C85.2441 140.057 42.1448 134.005 21.1135 103.74C-10.0549 59.1035 27.2885 -2.52074 82.137 5.91749C134.326 13.7718 154.466 80.1991 113.736 115.419ZM119.567 115.726C121.774 113.573 123.831 111.271 125.722 108.836C128.209 110.89 129.657 112.748 132.196 115.466C130.864 116.567 129.696 117.881 125.91 121.591C125.03 120.789 122.473 118.381 119.567 115.726ZM175.631 160.446L169.671 166.364C167.52 168.502 164.027 168.493 161.892 166.339L128.475 132.703C126.351 130.571 126.323 127.087 128.497 124.927C133.756 120.113 135.072 117.162 138.349 117.408C142.403 117.422 140.705 118.286 175.651 152.667C177.794 154.819 177.782 158.309 175.631 160.446Z" fill="white"/>
<path d="M87.6107 60.9616C89.3822 56.5805 89.7594 51.7802 89.9578 47.5946C100.542 30.2822 80.6645 11.5952 67.0823 24.3503C59.3287 22.6906 50.2394 30.3269 54.4781 46.1165C53.9025 72.7165 79.7369 80.4338 87.6107 60.9616ZM76.1129 67.2009C69.7116 69.1931 59.9937 64.5549 58.7782 48.3825C65.4282 48.3741 74.6684 44.0293 79.5022 38.1728C80.6338 42.0119 82.4612 45.5744 85.7443 47.8405C85.3419 55.8009 83.7269 64.8287 76.1129 67.2009ZM60.5553 30.1816C64.7185 26.2783 67.5043 30.2124 69.3093 28.0805C77.5743 18.3737 93.4895 29.2987 87.2726 43.7052C84.3723 41.0955 83.2016 36.6025 82.4165 32.0258C82.042 29.8435 78.9238 29.648 78.3287 31.8274C76.5879 38.2063 65.0315 44.5406 58.3284 44.2249C57.1157 39.2765 56.8335 33.6715 60.5553 30.1816Z" fill="white"/>
<path d="M103.738 103.209C104.157 103.211 104.572 103.118 104.95 102.938C105.328 102.757 105.661 102.494 105.923 102.167C106.185 101.84 106.37 101.458 106.464 101.05C106.558 100.641 106.558 100.217 106.465 99.8082C98.2368 65.2338 51.1307 65.8765 36.7745 99.7216C36.185 101.219 37.1434 102.949 38.8953 103.192C46.5148 103.997 57.0906 104.301 67.8367 104.301C92.4837 104.301 102.8 103.209 103.738 103.209ZM79.3206 78.7294C76.4203 82.1941 71.4467 82.1075 68.675 78.6652C68.8342 78.6344 75.7301 78.0113 79.3206 78.7294ZM41.5916 99.2382C45.8806 90.434 53.352 83.2615 64.3497 79.7912C68.457 87.1118 79.1557 87.5616 83.6123 79.9029C93.1459 83.1553 99.4634 90.0568 101.967 99.1237C88.7954 99.5875 63.0644 101.113 41.5916 99.2382Z" fill="white"/>
</svg>
