<svg width="174" height="150" viewBox="0 0 174 150" fill="none" xmlns="http://www.w3.org/2000/svg">
<path d="M142.051 39.6761C138.98 39.269 135.587 40.0323 132.415 40.6431C129.141 32.6359 125.561 24.7475 121.694 17.0797C119.251 12.2448 116.384 4.57699 111.668 1.37074C105.136 -3.05694 97.757 4.27163 93.6516 8.76717C76.1784 27.9029 60.2489 48.1073 36.8382 60.4913C36.6177 60.61 36.448 60.7457 36.2784 60.8815C29.6834 62.8913 23.1122 64.9781 16.5659 67.1413C12.3588 68.5493 6.60786 69.4823 3.13018 72.5868C-2.84125 77.8966 1.14536 89.4663 3.5034 95.5395C5.72572 101.256 10.8998 112.792 17.5668 114.743C19.382 115.286 21.5534 114.998 23.7079 114.455C27.6605 122.665 31.2739 131.114 35.8373 139.002C38.7721 144.091 41.7579 150.86 48.6284 148.587C55.8043 146.212 64.8293 138.9 62.6409 130.435C61.5382 126.16 57.6364 122.971 55.2105 119.493C52.5132 115.659 50.4266 111.503 48.4588 107.262C49.5275 106.923 50.5793 106.6 51.648 106.244C65.0838 103.631 78.5873 102.291 92.2266 103.801C104.373 105.141 116.231 108.348 128.157 110.892C134.027 112.148 145.223 116.779 149.261 109.654C153.383 102.393 147.937 88.8047 146.071 81.5779C144.799 76.6752 143.374 71.7895 141.864 66.9207C145.155 64.6984 149.244 62.6118 150.855 58.8966C152.552 54.9948 150.855 50.669 149.21 47.0725C147.768 43.985 145.766 40.1681 142.051 39.6761ZM13.7159 103.852C11.748 101.104 10.1534 98.169 8.84715 95.0645C7.52393 91.96 6.50607 88.7877 5.91232 85.4627C4.62304 78.3377 8.60964 75.1993 14.7677 73.1297C22.198 70.619 29.6793 68.2609 37.1775 65.9538C40.9605 77.9475 44.9811 89.8565 49.2221 101.698C42.5721 103.835 35.8713 105.82 29.1025 107.533C22.7748 109.145 18.0079 109.823 13.7159 103.852ZM53.6668 123.802C54.3454 124.701 55.4311 125.855 55.9739 126.703C59.2989 131.911 59.3668 135.117 54.973 139.952C53.8025 141.241 51.5293 142.683 50.0025 143.413C48.5096 144.125 47.407 144.498 46.423 144.532C47.1355 143.328 47.7123 142.039 48.1704 140.698C48.9677 138.374 45.2864 137.373 44.4891 139.681C44.0989 140.8 43.59 141.852 42.9793 142.853C42.8096 142.7 42.657 142.564 42.4873 142.378C42.1219 142.005 41.7818 141.609 41.4695 141.19C41.5034 141.106 41.5543 141.038 41.5713 140.953C41.8427 140.139 42.3686 139.409 42.7588 138.646C43.2338 137.696 43.6239 136.729 43.9802 135.728C44.7775 133.404 41.0963 132.403 40.2989 134.71C39.9596 135.694 39.4846 136.593 39.0096 137.509C38.5007 136.61 38.0257 135.694 37.5677 134.761C37.5677 134.744 37.5846 134.744 37.5846 134.727C38.4668 132.81 39.332 130.91 40.2141 128.993C40.6382 128.06 40.4855 126.94 39.5355 126.381C38.7213 125.906 37.3471 126.126 36.923 127.059C36.4311 128.128 35.9391 129.197 35.4641 130.265C35.1248 129.519 34.7686 128.789 34.4463 128.111L33.9373 127.042C34.073 126.906 34.2088 126.754 34.3275 126.567C35.1757 125.108 36.0239 123.632 36.8721 122.173C38.1105 120.053 34.8025 118.119 33.5811 120.239C33.0552 121.156 32.5293 122.072 31.9864 122.971C31.5114 121.953 31.0195 120.952 30.5445 119.934C30.6802 119.815 30.8159 119.697 30.9346 119.544C31.698 118.543 32.4275 117.525 33.14 116.49C33.7168 115.642 33.2927 114.37 32.4614 113.878C31.5114 113.318 30.4257 113.708 29.8489 114.556C29.4927 115.082 29.1025 115.591 28.7293 116.1L27.4061 113.301C28.4918 112.945 29.5096 112.623 30.4427 112.385C35.2605 111.164 40.0445 109.806 44.7945 108.348C47.3052 113.827 50.0364 119.018 53.6668 123.802ZM124.204 104.836C113.228 102.41 102.286 99.7127 91.073 98.5931C78.248 97.3207 65.5588 98.5591 52.9373 100.866C48.5775 88.7368 44.4721 76.5225 40.6043 64.2234C61.64 52.7386 77.9766 34.8074 93.3972 16.8082C95.1784 14.7216 98.0114 10.735 101.167 8.07163C110.277 21.677 116.214 38.6413 122.169 53.6886C129.005 70.9413 134.688 89.6868 137.962 108.059C133.28 107.703 127.495 105.565 124.204 104.836ZM145.308 103.258C145.138 105.905 143.764 107.228 141.779 107.788C138.454 88.7368 132.534 69.3466 125.375 51.4663C119.336 36.402 113.517 19.6073 104.39 6.00199C106.053 5.28949 107.749 5.15378 109.378 6.08681C111.532 7.32521 113.381 12.2618 114.535 14.3315C119.828 23.9841 124.255 34.1288 128.31 44.3413C133.161 56.5386 137.47 68.9904 140.829 81.6797C142.509 88.0582 145.749 96.5913 145.308 103.258ZM146.495 58.6761C145.172 60.5591 142.78 61.8824 140.66 63.1886C138.587 56.8207 136.318 50.5183 133.857 44.2904C135.367 44.0359 136.894 43.7984 138.42 43.6288C142.153 43.2386 143.578 44.3073 145.325 47.7511C146.97 51.0252 148.904 55.2493 146.495 58.6761ZM143.069 28.2422C143.103 24.6118 143.052 20.9815 143.086 17.3681C143.103 14.9082 139.286 14.9082 139.269 17.3681C139.235 20.9984 139.286 24.6288 139.252 28.2422C139.218 30.702 143.035 30.702 143.069 28.2422ZM158.608 35.5877C160.593 33.3993 162.578 31.2279 164.579 29.0395C166.225 27.2243 163.544 24.527 161.882 26.3422C159.897 28.5306 157.912 30.702 155.911 32.8904C154.248 34.7056 156.945 37.4029 158.608 35.5877ZM171.687 48.0904C168.854 47.9207 166.021 47.9377 163.188 47.8359C160.728 47.7681 160.728 51.585 163.188 51.6529C166.021 51.7377 168.871 51.7207 171.687 51.9073C174.13 52.06 174.13 48.2431 171.687 48.0904ZM157.319 65.4618C155.317 64.0199 153.417 67.3279 155.385 68.7529C157.811 70.5002 160.084 72.4681 162.289 74.4868C164.104 76.1324 166.802 73.452 164.986 71.7895C162.544 69.5672 160.016 67.4127 157.319 65.4618Z" fill="white"/>
<path d="M20.6373 83.444C22.9105 82.5618 21.9096 78.8636 19.6194 79.7627C17.0578 80.7636 14.4962 81.7475 11.9346 82.7484C9.66141 83.6306 10.6623 87.3288 12.9525 86.4297C15.5141 85.4458 18.0757 84.4449 20.6373 83.444ZM21.6891 86.0225C19.0596 87.2779 16.3623 88.2958 13.5802 89.127C11.2391 89.8225 12.24 93.5038 14.598 92.8083C17.7025 91.8922 20.7052 90.7047 23.623 89.3136C25.8284 88.2618 23.8944 84.9707 21.6891 86.0225Z" fill="white"/>
</svg>
