<svg width="186" height="160" viewBox="0 0 186 160" fill="none" xmlns="http://www.w3.org/2000/svg">
<path d="M155 1.27376L42.0598 0.769974C8.43273 0.479216 0.0756052 10.0368 0.965151 33.7897C2.19727 66.3401 2.1397 99.0288 3.49561 131.887C4.41106 154.143 13.39 159.236 35.9914 159.236L145.04 159.054C171.243 159 181.888 153.662 182.548 128.415L185.067 31.7025C185.714 6.76073 175.843 1.36876 155 1.27376ZM145.034 156.176L35.9856 156.357C12.0571 156.357 7.11712 149.903 6.37439 131.769C5.07894 100.595 5.09909 70.1516 3.97924 37.7106L182.006 38.675L179.672 128.343C179.079 151 170.935 156.127 145.034 156.176ZM182.188 31.6306L182.078 35.7962L3.88136 34.8289C3.0753 12.9357 8.23984 3.37528 42.0483 3.64876L154.989 4.15255C174.012 4.24467 182.804 8.03028 182.188 31.6306Z" fill="white"/>
<path d="M19.9766 16.9488C18.4797 18.0513 19.85 21.8369 21.1569 23.3512C25.9789 28.9303 33.9186 24.3703 33.5415 18.3363C33.0291 10.2297 21.2376 9.19619 19.9766 16.9488ZM22.3718 19.6807C22.5498 19.5178 22.6839 19.3126 22.7619 19.0843C22.8399 18.8559 22.8592 18.6116 22.818 18.3738C21.9918 13.6353 30.3173 12.9127 30.6685 18.5177C30.9477 23.0576 23.84 25.1879 22.3718 19.6807ZM42.1347 16.9488C39.7107 18.7336 43.1509 25.8845 48.5832 25.8845C52.4954 25.8845 55.9442 22.2515 55.6995 18.3363C55.1871 10.2297 43.3985 9.19619 42.1347 16.9488ZM44.5298 19.6807C44.7078 19.5178 44.8419 19.3126 44.9199 19.0843C44.9979 18.8559 45.0172 18.6116 44.976 18.3738C44.1498 13.6353 52.4753 12.9127 52.8265 18.5177C53.1201 23.2735 45.9462 24.9921 44.5298 19.6807ZM74.95 12.1469C71.032 10.5492 66.5353 12.7371 65.8501 16.9516C63.6766 18.5666 66.5957 25.7176 72.1316 25.8816L72.3044 25.8845C76.2138 25.8845 79.6626 22.2572 79.4179 18.3363C79.3133 16.9939 78.841 15.7062 78.0529 14.6144C77.2648 13.5226 76.1912 12.6689 74.95 12.1469ZM72.2123 23.0029C70.3698 22.951 68.7088 21.4138 68.2453 19.6779C68.4232 19.5155 68.5574 19.3109 68.6354 19.083C68.7134 18.855 68.7327 18.6111 68.6915 18.3738C68.2424 15.7973 71.0723 13.6698 73.8618 14.8156C75.3415 15.4201 76.4412 16.943 76.542 18.5177C76.6974 21.0395 74.0691 23.2677 72.2123 23.0029ZM150.259 10.981C146.18 9.29982 102.552 10.8285 99.673 10.9235C95.8903 11.0271 90.1701 11.1883 88.4774 15.7253C86.0477 22.2573 92.9885 25.7866 99.9004 25.9709C114.493 26.3538 129.728 25.7435 145.172 23.9557C157.531 22.5221 156.328 13.4885 150.259 10.981ZM126.428 13.2236L126.423 13.2294L126.417 13.2236H126.428ZM116.733 15.9901C116.721 16.0016 116.727 16.0189 116.715 16.0304C116.684 15.9757 116.692 15.9066 116.643 15.8577L114.179 13.3935C115.878 13.3618 117.547 13.3388 119.243 13.3157L119.324 13.3963L116.733 15.9901ZM108.24 15.1179L106.729 13.6065C107.765 13.5748 108.802 13.546 109.841 13.5201L108.24 15.1179ZM93.8003 14.5392C94.281 14.3751 94.7963 14.2485 95.3376 14.1535L94.376 15.115L93.8003 14.5392ZM144.841 21.0942C129.998 22.8157 114.919 23.4894 99.9753 23.0921C98.32 23.0489 95.9421 22.6718 94.0248 21.8456C94.0683 21.7432 94.0853 21.6315 94.0743 21.5208C94.0632 21.4101 94.0244 21.304 93.9615 21.2123L95.0727 20.101C95.1396 20.0341 95.1927 19.9547 95.2289 19.8673C95.2651 19.7798 95.2838 19.6861 95.2838 19.5915C95.2838 19.4969 95.2651 19.4032 95.2289 19.3157C95.1927 19.2283 95.1396 19.1489 95.0727 19.0819C95.0058 19.015 94.9264 18.962 94.8389 18.9257C94.7515 18.8895 94.6578 18.8709 94.5632 18.8709C94.4685 18.8709 94.3748 18.8895 94.2874 18.9257C94.2 18.962 94.1205 19.015 94.0536 19.0819L92.977 20.1586L90.8956 18.0772C90.9704 16.6695 91.5347 15.8088 92.4242 15.1956L93.3656 16.1369C93.2399 16.2713 93.171 16.449 93.1731 16.633C93.1752 16.8169 93.2483 16.993 93.3771 17.1244C93.4411 17.1902 93.5174 17.2426 93.6017 17.2788C93.686 17.315 93.7767 17.3342 93.8684 17.3353C93.9602 17.3364 94.0512 17.3193 94.1364 17.2851C94.2215 17.2509 94.299 17.2002 94.3645 17.1359L95.9939 18.7653C96.1291 18.9004 96.3123 18.9763 96.5035 18.9763C96.6946 18.9763 96.8779 18.9004 97.013 18.7653C97.1482 18.6301 97.2241 18.4469 97.2241 18.2557C97.2241 18.0646 97.1482 17.8813 97.013 17.7462L95.3923 16.1254L97.2923 14.2254L100.381 17.3144C100.188 17.5936 100.18 17.965 100.43 18.2154C100.672 18.4572 100.977 18.5062 101.331 18.2644L101.374 18.3076C101.51 18.4427 101.693 18.5186 101.884 18.5186C102.075 18.5186 102.258 18.4427 102.393 18.3076C102.529 18.1724 102.605 17.9891 102.605 17.798C102.605 17.6069 102.529 17.4236 102.393 17.2885L102.385 17.2798L104.725 14.9394C104.86 14.8042 104.936 14.6209 104.936 14.4298C104.936 14.2387 104.86 14.0554 104.725 13.9203C104.658 13.8534 104.579 13.8003 104.492 13.7641C104.404 13.7279 104.31 13.7092 104.216 13.7092C104.025 13.7092 103.841 13.7851 103.706 13.9203L101.366 16.2607L98.9216 13.8166L99.7507 13.7907C103.343 13.6842 104.783 13.6497 104.783 13.6497C104.8 13.6698 104.791 13.6986 104.812 13.7159L107.23 16.1341C107.104 16.268 107.035 16.4455 107.038 16.6293C107.041 16.813 107.115 16.9884 107.244 17.1186C107.311 17.1856 107.39 17.2388 107.478 17.2751C107.565 17.3114 107.659 17.3301 107.754 17.3301C107.848 17.3301 107.942 17.3114 108.03 17.2751C108.117 17.2388 108.196 17.1856 108.263 17.1186L108.292 17.0898C108.577 17.251 108.836 17.3144 109.136 17.0179C109.369 16.7847 109.36 16.4479 109.208 16.1744L111.804 13.5777C111.839 13.5432 111.83 13.4885 111.859 13.4482C111.974 13.4453 112.089 13.4395 112.207 13.4395L115.633 16.8653C115.7 16.9323 115.779 16.9855 115.867 17.0218C115.954 17.058 116.048 17.0767 116.143 17.0767C116.237 17.0767 116.331 17.058 116.418 17.0218C116.506 16.9855 116.585 16.9323 116.652 16.8653C116.664 16.8538 116.658 16.8365 116.669 16.825C116.701 16.8797 116.692 16.9488 116.741 16.9977C116.808 17.0647 116.888 17.1179 116.975 17.1542C117.062 17.1905 117.156 17.2091 117.251 17.2091C117.346 17.2091 117.439 17.1905 117.527 17.1542C117.614 17.1179 117.694 17.0647 117.76 16.9977L120.351 14.4039L122.352 16.4076C122.487 16.5427 122.671 16.6186 122.862 16.6186C123.053 16.6186 123.236 16.5427 123.371 16.4076C123.506 16.2724 123.582 16.0891 123.582 15.898C123.582 15.7069 123.506 15.5236 123.371 15.3885L121.264 13.2783L124.419 13.238L125.415 14.2341L124.16 15.4892C124.093 15.5561 124.04 15.6356 124.004 15.723C123.968 15.8104 123.949 15.9041 123.949 15.9988C123.949 16.0934 123.968 16.1871 124.004 16.2745C124.04 16.362 124.093 16.4414 124.16 16.5083C124.227 16.5752 124.306 16.6283 124.394 16.6645C124.481 16.7007 124.575 16.7194 124.67 16.7194C124.764 16.7194 124.858 16.7007 124.945 16.6645C125.033 16.6283 125.112 16.5752 125.179 16.5083L126.434 15.2532L127.911 16.73C127.978 16.7969 128.057 16.85 128.145 16.8862C128.232 16.9224 128.326 16.941 128.421 16.941C128.515 16.941 128.609 16.9224 128.696 16.8862C128.784 16.85 128.863 16.7969 128.93 16.73C128.997 16.6631 129.05 16.5836 129.086 16.4962C129.123 16.4088 129.141 16.3151 129.141 16.2204C129.141 16.1258 129.123 16.0321 129.086 15.9447C129.05 15.8572 128.997 15.7778 128.93 15.7109L127.453 14.2341L128.504 13.1833L129.825 13.166L130.223 13.5633L129.759 14.0268C129.692 14.0937 129.639 14.1731 129.603 14.2606C129.567 14.348 129.548 14.4417 129.548 14.5363C129.548 14.631 129.567 14.7247 129.603 14.8121C129.639 14.8995 129.692 14.979 129.759 15.0459C129.826 15.1128 129.906 15.1659 129.993 15.2021C130.08 15.2383 130.174 15.2569 130.269 15.2569C130.363 15.2569 130.457 15.2383 130.545 15.2021C130.632 15.1659 130.711 15.1128 130.778 15.0459L131.242 14.5824L131.867 15.2071C132.002 15.3422 132.185 15.4182 132.376 15.4182C132.567 15.4182 132.75 15.3422 132.886 15.2071C133.021 15.072 133.097 14.8887 133.097 14.6976C133.097 14.5064 133.021 14.3231 132.886 14.188L132.261 13.5633L132.693 13.1286C143.949 13.0048 146.735 12.6162 149.177 13.6238C152.758 15.1322 153.846 20.0636 144.841 21.0942ZM133.925 72.4633C131.046 70.4568 122.87 60.5019 117.568 66.5877C115.152 69.3657 115.509 74.1704 118.4 77.766C122.715 83.1407 131.092 85.533 132.578 91.8203C134.486 99.9442 123.826 105.82 119.067 110.486C117.732 111.793 115.878 113.84 115.164 116.515C113.998 120.899 116.606 125.28 121.192 125.28C125.519 125.28 128.694 122.5 142.576 113C147.884 109.364 152.769 105.621 154.266 99.8089C157.908 85.6367 139.351 76.2547 133.925 72.4633ZM135.33 96.2162L136.573 97.4598C136.314 97.3533 136.021 97.3533 135.81 97.5663L134.351 99.0259C134.786 98.0903 135.117 97.1518 135.33 96.2162ZM124.287 109.758C124.315 109.804 124.307 109.862 124.347 109.902L122.824 111.425L122.591 111.192C123.15 110.702 123.708 110.224 124.287 109.758ZM120.006 113.688C120.328 113.316 120.68 112.936 121.08 112.545C121.218 112.409 121.376 112.286 121.517 112.153L121.805 112.441L120.282 113.964L120.006 113.688ZM119.116 114.833L120.933 116.65L118.759 118.823L117.855 117.919C117.884 117.698 117.887 117.476 117.945 117.257C118.158 116.457 118.549 115.657 119.116 114.833ZM151.471 99.0921C150.225 103.94 145.78 107.311 140.946 110.622C128.09 119.419 121.514 125.174 118.541 121.075L118.756 120.859L118.99 121.092C119.125 121.227 119.308 121.303 119.499 121.303C119.69 121.303 119.874 121.227 120.009 121.092C120.144 120.957 120.22 120.773 120.22 120.582C120.22 120.391 120.144 120.208 120.009 120.073L119.776 119.84L121.949 117.666L122.09 117.807C122.225 117.942 122.409 118.018 122.6 118.018C122.791 118.018 122.974 117.942 123.109 117.807C123.244 117.672 123.32 117.489 123.32 117.298C123.32 117.106 123.244 116.923 123.109 116.788L122.968 116.647L123.55 116.065C123.617 115.999 123.67 115.919 123.706 115.832C123.742 115.744 123.761 115.651 123.761 115.556C123.761 115.461 123.742 115.368 123.706 115.28C123.67 115.193 123.617 115.113 123.55 115.046C123.483 114.979 123.403 114.926 123.316 114.89C123.228 114.854 123.135 114.835 123.04 114.835C122.946 114.835 122.852 114.854 122.764 114.89C122.677 114.926 122.598 114.979 122.531 115.046L121.949 115.628L121.298 114.977L122.821 113.454L124.742 115.375C124.877 115.51 125.06 115.586 125.251 115.586C125.442 115.586 125.625 115.51 125.761 115.375C125.896 115.239 125.972 115.056 125.972 114.865C125.972 114.674 125.896 114.491 125.761 114.355L123.84 112.435L125.363 110.912L126.673 112.222C126.808 112.357 126.992 112.433 127.183 112.433C127.374 112.433 127.557 112.357 127.692 112.222C127.827 112.087 127.903 111.904 127.903 111.713C127.903 111.522 127.827 111.338 127.692 111.203L125.366 108.877L125.507 108.762C126.725 107.789 127.948 106.761 129.137 105.685L130.441 106.989L128.697 108.739C128.562 108.874 128.486 109.057 128.486 109.248C128.486 109.44 128.562 109.623 128.697 109.758C128.832 109.893 129.015 109.969 129.206 109.969C129.398 109.969 129.581 109.893 129.716 109.758L131.489 107.985C131.841 108.235 132.16 108.183 132.402 107.941C132.655 107.688 132.647 107.311 132.445 107.029L133.637 105.837C133.772 105.702 133.848 105.519 133.848 105.328C133.848 105.136 133.772 104.953 133.637 104.818C133.502 104.683 133.319 104.607 133.127 104.607C132.936 104.607 132.753 104.683 132.618 104.818L131.458 105.978L130.185 104.706C131.003 103.9 130.473 104.565 131.74 103.05C131.818 103.076 131.881 103.143 131.964 103.143C132.059 103.143 132.153 103.124 132.24 103.088C132.328 103.052 132.407 102.999 132.474 102.932L133.634 101.772L134.383 102.521C135.056 103.194 136.07 102.172 135.402 101.502L134.653 100.753L136.83 98.5768C137.074 98.3321 137.066 97.9723 136.884 97.693C137.235 97.9319 137.538 97.8859 137.782 97.6441C137.849 97.5772 137.903 97.4978 137.939 97.4104C137.975 97.3229 137.994 97.2292 137.994 97.1345C137.994 97.0399 137.975 96.9461 137.939 96.8587C137.903 96.7712 137.849 96.6918 137.782 96.625L135.612 94.4544C135.701 93.3316 135.629 92.2262 135.379 91.1582C133.571 83.4776 124.687 80.9903 120.645 75.9582C118.446 73.2233 118.463 69.9444 119.741 68.4733C122.81 64.9468 129.247 72.7023 132.278 74.821C138.183 78.9463 154.525 87.2373 151.471 99.0921ZM56.6063 102.109C53.4742 98.8129 52.0435 94.9668 52.7833 91.8203C54.2716 85.5215 62.6029 83.1954 66.9613 77.766C69.8516 74.1704 70.2086 69.3657 67.7933 66.5877C65.7839 64.2732 62.4906 64.135 58.9756 66.2307C56.0392 67.9868 54.1133 70.5979 51.4389 72.4633C46.6371 75.8171 27.4068 85.4466 31.1032 99.806C33.0521 107.389 39.6906 110.878 56.0997 122.102C59.8392 124.664 64.5633 126.746 68.0956 123.936C70.1107 122.33 70.9571 119.347 70.2029 116.515C68.5965 110.509 61.1376 106.873 56.6063 102.109ZM50.4486 77.9935L49.5792 77.1241C50.4371 76.5771 51.2863 76.0186 52.1298 75.4515L52.5588 75.8804L50.4486 77.9935ZM44.075 80.7571L44.5557 81.2379L42.1433 83.6503L41.3344 82.8413C41.8353 82.4182 42.3391 81.995 42.8486 81.615C43.243 81.3185 43.6662 81.045 44.075 80.7571ZM36.7513 87.7583L38.778 89.7821L36.0029 92.5573L34.7247 91.2791C35.2738 90.0371 35.9532 88.8569 36.7513 87.7583ZM33.956 99.285L34.5663 99.8953L34.2727 100.189C34.1604 99.8895 34.0424 99.5959 33.956 99.285ZM66.2963 121.685C64.1171 123.424 60.4323 121.587 57.7204 119.727C42.5521 109.352 37.5229 106.511 34.9032 101.591L35.5826 100.911L36.7571 102.086C36.8922 102.221 37.0755 102.297 37.2666 102.297C37.4578 102.297 37.6411 102.221 37.7762 102.086C37.9113 101.951 37.9873 101.768 37.9873 101.576C37.9873 101.385 37.9113 101.202 37.7762 101.067L36.6016 99.8924L40.9285 95.5627C40.9954 95.4958 41.0485 95.4164 41.0847 95.3289C41.1209 95.2415 41.1395 95.1478 41.1395 95.0532C41.1395 94.9585 41.1209 94.8648 41.0847 94.7774C41.0485 94.69 40.9954 94.6105 40.9285 94.5436C40.8615 94.4767 40.7821 94.4236 40.6947 94.3874C40.6073 94.3512 40.5135 94.3326 40.4189 94.3326C40.3243 94.3326 40.2306 94.3512 40.1432 94.3874C40.0557 94.4236 39.9763 94.4767 39.9094 94.5436L35.5826 98.8733L33.5933 96.8841C33.5357 95.4936 33.7689 94.1204 34.1892 92.7789L34.9838 93.5735L34.8916 93.6656C34.8247 93.7325 34.7717 93.8119 34.7354 93.8994C34.6992 93.9868 34.6806 94.0805 34.6806 94.1751C34.6806 94.3662 34.7565 94.5495 34.8916 94.6847C35.0268 94.8198 35.2101 94.8957 35.4012 94.8957C35.5923 94.8957 35.7756 94.8198 35.9107 94.6847L36.0029 94.5926L37.1803 95.77C37.2472 95.8369 37.3266 95.89 37.4141 95.9262C37.5015 95.9624 37.5952 95.981 37.6898 95.981C37.7845 95.981 37.8782 95.9624 37.9656 95.9262C38.053 95.89 38.1325 95.8369 38.1994 95.77C38.2663 95.7031 38.3194 95.6236 38.3556 95.5362C38.3918 95.4488 38.4104 95.3551 38.4104 95.2604C38.4104 95.1658 38.3918 95.0721 38.3556 94.9847C38.3194 94.8972 38.2663 94.8178 38.1994 94.7509L37.0219 93.5735L39.9324 90.663C39.9497 90.663 39.9641 90.6832 39.9813 90.6832C40.0759 90.6835 40.1697 90.6651 40.2571 90.629C40.3446 90.5929 40.424 90.5399 40.4909 90.473C40.5611 90.3998 40.6145 90.3122 40.6473 90.2162C40.6801 90.1202 40.6916 90.0183 40.6809 89.9174L42.7162 87.8821C42.7831 87.8152 42.8362 87.7357 42.8724 87.6483C42.9086 87.5609 42.9273 87.4672 42.9273 87.3726C42.9273 87.2779 42.9086 87.1842 42.8724 87.0968C42.8362 87.0094 42.7831 86.9299 42.7162 86.863C42.6493 86.7961 42.5698 86.743 42.4824 86.7068C42.395 86.6706 42.3013 86.6519 42.2066 86.6519C42.112 86.6519 42.0183 86.6706 41.9309 86.7068C41.8435 86.743 41.764 86.7961 41.6971 86.863L39.7971 88.763L37.6323 86.5982C38.4412 85.6021 39.325 84.6665 40.2577 83.7971L41.1242 84.6636L40.7903 84.9976C40.7234 85.0645 40.6703 85.1439 40.6341 85.2313C40.5979 85.3188 40.5792 85.4125 40.5792 85.5071C40.5792 85.6017 40.5979 85.6954 40.6341 85.7829C40.6703 85.8703 40.7234 85.9497 40.7903 86.0166C40.8572 86.0836 40.9366 86.1366 41.0241 86.1729C41.1115 86.2091 41.2052 86.2277 41.2998 86.2277C41.3945 86.2277 41.4882 86.2091 41.5756 86.1729C41.663 86.1366 41.7425 86.0836 41.8094 86.0166L42.1433 85.6827L42.3016 85.841C42.4368 85.9762 42.6201 86.0521 42.8112 86.0521C43.0023 86.0521 43.1856 85.9762 43.3207 85.841C43.4559 85.7059 43.5318 85.5226 43.5318 85.3315C43.5318 85.1404 43.4559 84.9571 43.3207 84.8219L43.1624 84.6636L45.5748 82.2512L46.7321 83.4085C46.799 83.4754 46.8785 83.5285 46.9659 83.5647C47.0533 83.6009 47.147 83.6195 47.2416 83.6195C47.3363 83.6195 47.43 83.6009 47.5174 83.5647C47.6048 83.5285 47.6843 83.4754 47.7512 83.4085C47.8181 83.3415 47.8712 83.2621 47.9074 83.1747C47.9436 83.0872 47.9623 82.9936 47.9623 82.8989C47.9623 82.8043 47.9436 82.7106 47.9074 82.6232C47.8712 82.5357 47.8181 82.4563 47.7512 82.3894L45.2783 79.9165C46.3003 79.2342 47.3309 78.5692 48.35 77.9215L49.4324 79.0039L48.7357 79.7006C48.6006 79.8357 48.5247 80.019 48.5247 80.2101C48.5247 80.4013 48.6006 80.5845 48.7357 80.7197C48.8709 80.8548 49.0542 80.9307 49.2453 80.9307C49.4364 80.9307 49.6197 80.8548 49.7548 80.7197L53.6268 76.8448C53.7362 76.9082 53.8427 76.9859 53.9694 76.9859C54.1119 76.9861 54.2513 76.9441 54.3699 76.865C54.4885 76.7859 54.5809 76.6734 54.6355 76.5418C54.6901 76.4101 54.7043 76.2652 54.6765 76.1254C54.6486 75.9857 54.5798 75.8573 54.4789 75.7566L54.3523 75.63C54.3263 75.4976 54.3004 75.3594 54.1968 75.2557C54.0932 75.1521 53.955 75.1291 53.8226 75.1003L53.3389 74.6166C54.0126 74.1273 54.6574 73.5918 55.285 73.0333C55.2899 73.2049 55.3575 73.3688 55.475 73.4939C55.5418 73.5609 55.6213 73.6141 55.7087 73.6504C55.7961 73.6867 55.8899 73.7054 55.9845 73.7054C56.0792 73.7054 56.1729 73.6867 56.2604 73.6504C56.3478 73.6141 56.4272 73.5609 56.4941 73.4939L56.828 73.16L57.4066 73.7386C57.4736 73.8055 57.553 73.8586 57.6404 73.8948C57.7279 73.931 57.8216 73.9497 57.9162 73.9497C58.0108 73.9497 58.1045 73.931 58.192 73.8948C58.2794 73.8586 58.3588 73.8055 58.4257 73.7386C58.4927 73.6717 58.5457 73.5923 58.5819 73.5048C58.6182 73.4174 58.6368 73.3237 58.6368 73.2291C58.6368 73.1344 58.6182 73.0407 58.5819 72.9533C58.5457 72.8659 58.4927 72.7864 58.4257 72.7195L57.8471 72.1409L59.5974 70.3906L61.1951 71.9883C61.3303 72.1235 61.5136 72.1994 61.7047 72.1994C61.8958 72.1994 62.0791 72.1235 62.2142 71.9883C62.3494 71.8532 62.4253 71.6699 62.4253 71.4788C62.4253 71.2877 62.3494 71.1044 62.2142 70.9692L60.4841 69.2391C60.4938 69.0731 60.4426 68.9093 60.3401 68.7785C60.3776 68.7554 60.415 68.718 60.4524 68.695C61.6442 67.9839 62.7324 67.6269 63.6479 67.6269C64.4597 67.6269 65.1362 67.9062 65.6256 68.4676C66.9009 69.9386 66.9182 73.2147 64.7216 75.9524C60.7259 80.9298 51.7873 83.5121 49.988 91.1524C49.0092 95.3065 50.6645 100.022 54.525 104.084C59.0735 108.866 66.138 112.447 67.4191 117.246C67.8739 118.976 67.4133 120.795 66.2963 121.685ZM107.814 51.0509C104.538 50.36 101.585 52.7839 99.4657 57.8276C97.0476 63.5765 94.3876 69.3485 91.8168 74.9276C89.0474 80.9327 86.1859 87.1394 83.6036 93.3662C80.7018 100.365 78.5859 106.306 76.945 112.061C76.7694 112.668 76.4873 113.5 76.1591 114.476C73.905 121.123 72.0885 127.321 74.6016 130.117C78.606 134.567 84.5076 130.546 87.9535 125.727C91.906 120.217 92.05 118.461 111.182 63.2685C111.85 61.331 112.613 59.1345 112.4 56.7883C112.181 54.4335 110.656 51.6324 107.814 51.0509ZM106.628 53.8635L104.003 56.4918L103.626 56.1147C104.42 54.9344 105.445 53.9354 106.628 53.8635ZM102.857 57.3813L102.984 57.508L102.604 57.8909C102.687 57.721 102.762 57.5569 102.857 57.3813ZM99.8774 64.0659L101.602 65.7903L97.0994 70.2927C98.0436 68.2286 98.9562 66.1588 99.8774 64.0659ZM93.2821 78.6441L94.5862 79.9482L91.0914 83.443C91.8197 81.8309 92.5509 80.2332 93.2821 78.6441ZM86.9085 92.9833L87.2194 93.2942L86.4335 94.0801C86.586 93.7145 86.7559 93.3489 86.9085 92.9833ZM79.0753 114.833L79.9706 115.729L78.1857 117.513C78.442 116.722 78.6895 115.979 78.8853 115.403L79.0753 114.833ZM108.462 62.3271C89.5368 116.915 89.3382 118.858 85.613 124.051C83.5518 126.93 79.3085 130.868 76.8327 128.266L77.3163 127.782C77.3815 127.846 77.4585 127.896 77.543 127.929C77.6275 127.963 77.7178 127.979 77.8087 127.978C77.8997 127.977 77.9894 127.958 78.0729 127.921C78.1564 127.885 78.2319 127.833 78.2951 127.768C78.4231 127.638 78.496 127.464 78.4987 127.281C78.5014 127.099 78.4336 126.923 78.3095 126.789L80.8717 124.227C81.0068 124.092 81.0827 123.908 81.0827 123.717C81.0827 123.526 81.0068 123.343 80.8717 123.208C80.7365 123.073 80.5532 122.997 80.3621 122.997C80.171 122.997 79.9877 123.073 79.8526 123.208L77.302 125.758L76.3577 124.817C76.5304 123.441 76.8845 121.872 77.3221 120.326C77.3682 120.297 77.4257 120.306 77.4632 120.266L77.8748 119.854L79.2192 121.198C79.3544 121.333 79.5377 121.409 79.7288 121.409C79.9199 121.409 80.1032 121.333 80.2383 121.198C80.3735 121.063 80.4494 120.88 80.4494 120.689C80.4494 120.498 80.3735 120.314 80.2383 120.179L78.8939 118.835L81.0962 116.633C81.1394 116.641 81.171 116.681 81.2142 116.681C81.3088 116.682 81.4025 116.663 81.4899 116.627C81.5773 116.591 81.6568 116.538 81.7238 116.471C81.8965 116.299 81.9253 116.068 81.885 115.847L84.7379 112.994C84.873 112.859 84.9489 112.675 84.9489 112.484C84.9489 112.293 84.873 112.11 84.7379 111.975C84.6027 111.84 84.4194 111.764 84.2283 111.764C84.0372 111.764 83.8539 111.84 83.7188 111.975L80.981 114.712L79.5676 113.299C79.6107 113.155 79.6712 112.982 79.7057 112.856C80.0023 111.813 80.3362 110.751 80.6673 109.689C80.673 109.683 80.6788 109.686 80.6845 109.683L82.0174 108.35L82.7774 109.11C82.8443 109.177 82.9238 109.23 83.0112 109.266C83.0986 109.303 83.1923 109.321 83.2869 109.321C83.3816 109.321 83.4753 109.303 83.5627 109.266C83.6501 109.23 83.7296 109.177 83.7965 109.11C83.8634 109.043 83.9165 108.964 83.9527 108.877C83.9889 108.789 84.0076 108.695 84.0076 108.601C84.0076 108.506 83.9889 108.412 83.9527 108.325C83.9165 108.238 83.8634 108.158 83.7965 108.091L83.0365 107.331L86.6091 103.759C86.7442 103.623 86.8201 103.44 86.8201 103.249C86.8201 103.058 86.7442 102.875 86.6091 102.74C86.4739 102.604 86.2906 102.528 86.0995 102.528C85.9084 102.528 85.7251 102.604 85.59 102.74L82.0174 106.312L81.836 106.131C82.4895 104.213 83.1948 102.244 83.9836 100.186L85.6619 101.864C85.7971 102 85.9804 102.075 86.1715 102.075C86.3626 102.075 86.5459 102 86.681 101.864C86.8162 101.729 86.8921 101.546 86.8921 101.355C86.8921 101.164 86.8162 100.98 86.681 100.845L84.5536 98.7179L85.043 97.5001L88.2356 94.3076L89.01 95.0819C89.1451 95.2171 89.3284 95.293 89.5195 95.293C89.7106 95.293 89.8939 95.2171 90.0291 95.0819C90.1642 94.9468 90.2401 94.7635 90.2401 94.5724C90.2401 94.3813 90.1642 94.198 90.0291 94.0629L89.2547 93.2885L91.2813 91.2618C91.4165 91.1267 91.4924 90.9434 91.4924 90.7523C91.4924 90.5611 91.4165 90.3778 91.2813 90.2427C91.1462 90.1076 90.9629 90.0316 90.7718 90.0316C90.5807 90.0316 90.3974 90.1076 90.2623 90.2427L88.2356 92.2694L87.5245 91.5583C88.3076 89.7274 89.0877 87.8965 89.9024 86.0771L91.7592 87.931C91.8944 88.0662 92.0777 88.1421 92.2688 88.1421C92.4599 88.1421 92.6432 88.0662 92.7783 87.931C92.9135 87.7959 92.9894 87.6126 92.9894 87.4215C92.9894 87.2304 92.9135 87.0471 92.7783 86.9119L91.2123 85.3488L95.6485 80.9126C95.9421 81.091 96.2242 81.14 96.515 80.8492C96.7539 80.6103 96.7453 80.2591 96.5783 79.9827L99.7421 76.8189C99.8772 76.6838 99.9532 76.5005 99.9532 76.3094C99.9532 76.1183 99.8772 75.935 99.7421 75.7998C99.607 75.6647 99.4237 75.5888 99.2326 75.5888C99.0414 75.5888 98.8581 75.6647 98.723 75.7998L95.6024 78.9204L93.9212 77.2392L94.4279 76.1309C94.946 75.0082 95.47 73.8509 95.9911 72.7109C96.0889 72.7598 96.181 72.8347 96.2904 72.8347C96.3912 72.8347 96.4776 72.7598 96.5697 72.7195L98.3804 74.5274C98.5156 74.6625 98.6989 74.7385 98.89 74.7385C99.0811 74.7385 99.2644 74.6625 99.3995 74.5274C99.5347 74.3923 99.6106 74.209 99.6106 74.0179C99.6106 73.8267 99.5347 73.6435 99.3995 73.5083L97.6579 71.7666L104.17 65.2548C104.237 65.1879 104.29 65.1085 104.326 65.021C104.362 64.9336 104.381 64.8399 104.381 64.7453C104.381 64.6507 104.362 64.5569 104.326 64.4695C104.29 64.3821 104.237 64.3027 104.17 64.2357C104.103 64.1688 104.023 64.1157 103.936 64.0795C103.848 64.0433 103.755 64.0247 103.66 64.0247C103.565 64.0247 103.472 64.0433 103.384 64.0795C103.297 64.1157 103.218 64.1688 103.151 64.2357L102.621 64.7654L100.496 62.6409C100.92 61.6707 101.354 60.7063 101.769 59.7333C101.835 59.8002 101.915 59.8534 102.002 59.8896C102.089 59.9258 102.182 59.9445 102.277 59.9445C102.371 59.9445 102.465 59.9258 102.552 59.8896C102.639 59.8534 102.718 59.8002 102.785 59.7333L104.003 58.5156L104.921 59.4339C104.988 59.5008 105.067 59.5539 105.155 59.5901C105.242 59.6263 105.336 59.645 105.431 59.645C105.525 59.645 105.619 59.6263 105.706 59.5901C105.794 59.5539 105.873 59.5008 105.94 59.4339C106.007 59.367 106.06 59.2876 106.096 59.2001C106.133 59.1127 106.151 59.019 106.151 58.9244C106.151 58.8297 106.133 58.736 106.096 58.6486C106.06 58.5612 106.007 58.4817 105.94 58.4148L105.019 57.4936L107.975 54.5371C108.053 54.4594 108.056 54.3529 108.091 54.2579C108.92 54.8682 109.438 56.0168 109.533 57.0359C109.691 58.7804 109.066 60.5854 108.462 62.3271Z" fill="white"/>
</svg>
