<svg width="124" height="164" viewBox="0 0 124 164" fill="none" xmlns="http://www.w3.org/2000/svg">
<path d="M60.3888 33.6665C63.5605 33.6665 66.4435 31.1028 66.8488 27.9716C67.3048 25.3623 66.1648 22.6389 64.0621 21.3292C58.846 18.0789 52.3936 22.9455 53.9693 28.7721C54.3711 30.1696 55.2126 31.4004 56.3689 32.282C57.5252 33.1636 58.9348 33.6491 60.3888 33.6665Z" fill="#00010D"/>
<path d="M121.039 35.564C122.301 33.7603 124.211 31.0369 123.808 27.9994C123.398 24.6453 120.664 22.5198 118.134 20.7896C116.758 19.8522 105.72 12.2826 105.497 12.1306C103.894 11.0185 100.909 8.96398 97.7301 9.72905C95.2981 10.3142 93.7427 12.2624 92.3544 14.2004C86.7811 22.0284 86.89 21.9068 73.0352 41.3172L71.9712 36.8839C78.3299 29.2864 76.4603 16.3081 66.1977 12.5081C65.9789 9.98439 65.4922 7.49108 64.7461 5.07025C63.2135 0.130249 59.2057 0.0162488 57.2171 2.62305C55.6261 4.63705 54.7597 10.5296 54.2683 12.883C46.2629 16.5564 42.2172 27.095 47.4283 35.1536C46.5669 37.3728 47.6867 35.4398 41.7587 60.2133L24.2483 35.5538C18.8497 27.7309 11.7843 26.5605 7.52574 24.283C7.00307 24.0662 6.43246 23.9911 5.87147 24.0652C4.95271 22.8071 4.03648 21.5472 3.1228 20.2854C2.99572 20.1101 2.83535 19.9615 2.65084 19.8482C2.46634 19.7349 2.26132 19.659 2.04748 19.6249C1.83365 19.5907 1.61519 19.5991 1.40458 19.6494C1.19396 19.6997 0.995328 19.791 0.820004 19.9181C0.644681 20.0452 0.496103 20.2056 0.382758 20.3901C0.269414 20.5746 0.193521 20.7796 0.159411 20.9934C0.125301 21.2073 0.133642 21.4257 0.18396 21.6363C0.234277 21.847 0.325585 22.0456 0.452669 22.2209C1.79534 24.0778 2.68707 25.304 3.31534 26.1222C3.138 26.6188 3.0772 27.1609 3.16334 27.698C4.43 33.4816 3.9816 38.8953 8.39467 45.3578L23.4655 66.6201C20.3165 67.9451 17.3044 70.0655 17.3044 73.4677C17.0511 87.8799 17.3525 86.7449 15.5513 89.7672L9.0052 100.889C8.5855 101.598 8.33044 102.393 8.25882 103.214C8.1872 104.035 8.30086 104.862 8.5914 105.634C8.88195 106.405 9.34198 107.101 9.93755 107.671C10.5331 108.241 11.2491 108.67 12.0325 108.927C14.044 109.596 16.1036 110.282 18.1733 110.951C18.6825 111.117 19.1259 111.44 19.44 111.874C19.754 112.308 19.9225 112.83 19.9213 113.365V124.183C19.9318 126.696 20.8904 129.113 22.6056 130.951C24.3207 132.789 26.6661 133.912 29.1731 134.095C31.4353 134.258 33.2365 134.313 34.8984 134.273C35.8307 134.199 36.6768 135.099 36.6768 136.056V143.679C32.2865 144.502 31.0021 147.317 29.9255 151.646C29.2212 154.466 28.18 157.544 27.4757 161.096C27.4226 161.364 27.4372 161.642 27.5183 161.904C27.5995 162.166 27.7445 162.403 27.9404 162.595C28.1362 162.786 28.3767 162.926 28.6402 163.001C28.9036 163.077 29.1817 163.085 29.4492 163.026L85.9426 150.524C87.27 150.083 87.27 150.083 86.6063 144.766C86.2516 141.961 86.0793 138.828 85.56 137.277C84.5796 134.427 82.1932 133.789 79.2697 134.465C79.48 133.186 78.0537 126.685 84.0223 120.641C97.0639 107.544 101.102 89.4404 96.808 73.1637C96.7979 73.1207 96.7675 73.0877 96.7523 73.0472C96.5019 72.3967 96.1617 71.7844 95.7415 71.2283L121.039 35.564ZM75.9587 78.4457C73.8889 78.6281 71.8901 78.7548 68.5436 78.8612L67.5151 73.2144C72.1511 66.7696 89.0129 43.43 98.2089 30.6873C100.691 32.4471 103.177 34.2018 105.667 35.9516C96.4356 48.7069 84.7468 66.3415 75.9587 78.4457ZM55.084 78.9802L54.2379 77.7871C54.8433 75.2613 55.388 73.9111 56.3 71.9148L64.3307 74.1289L65.2047 78.9448C62.0025 79.0107 58.6509 79.0309 55.084 78.9802ZM89.1624 24.3717C91.2834 25.8363 93.3988 27.309 95.5084 28.7898C54.096 86.1445 67.9407 66.7898 65.0932 70.9192L57.8327 68.9178C60.67 63.8968 64.9133 58.4273 89.1624 24.3717ZM51.7983 74.3544L51.0889 73.3563C52.5051 70.3771 56.4849 62.6605 59.3881 57.0847C59.6617 57.7712 59.9404 58.5287 60.2064 59.276C56.8649 64.1476 53.7692 68.2794 51.7983 74.3544ZM67.2896 16.6526C70.9553 18.9428 72.9896 24.0094 72.1283 28.7012C72.1207 28.7341 72.1156 28.767 72.1131 28.8025C71.462 34.1706 66.5195 38.8168 61.0931 39.1613C55.6337 39.4577 50.2099 35.5817 48.7557 30.2617C45.9108 19.7661 57.6908 10.7094 67.2896 16.6526ZM50.0376 38.224C55.4843 43.2172 63.0513 44.0304 69.1972 39.4906C69.6279 41.2868 70.056 43.0804 70.4968 44.8714L62.5295 56.0232C60.9259 51.9268 60.2495 51.9116 59.3679 51.9116C59.0664 51.9114 58.7707 51.994 58.5129 52.1504C58.2552 52.3067 58.0453 52.5308 57.9061 52.7982C57.6021 53.3809 51.6919 64.6745 48.9153 70.2935L44.3021 63.7954C50.4809 37.9985 48.2693 46.6676 50.0376 38.224ZM6.4592 27.4193C10.3884 29.5042 16.7724 30.5353 21.5427 37.4462L47.5499 74.063C47.5964 74.269 47.6833 74.4637 47.8054 74.6359C47.9276 74.8081 48.0827 74.9543 48.2617 75.0663L51.0003 78.9245C46.5669 78.8308 39.9929 78.6256 35.6001 78.0378L11.0977 43.4756C7.23947 37.8136 7.68027 33.0889 6.4592 27.4193ZM92.5926 101.089C90.4899 107.3 86.7152 113.256 81.679 118.318C74.4412 125.647 76.2373 133.69 75.9688 135.36C62.9475 138.514 52.8851 140.505 39.9701 143.043C39.9296 136.31 40.0715 135.722 39.8435 134.926C39.5954 133.781 38.954 132.759 38.0307 132.038C37.1074 131.316 35.9606 130.941 34.7895 130.977C32.9925 131.001 31.1953 130.944 29.4036 130.805C27.7282 130.682 26.1606 129.932 25.0138 128.705C23.8671 127.477 23.2255 125.862 23.2172 124.183V113.365C23.2172 110.834 21.6035 108.605 19.1943 107.812C17.3652 107.224 15.4399 106.583 13.0636 105.793C12.7481 105.692 12.4596 105.521 12.2193 105.292C11.979 105.064 11.7932 104.785 11.6756 104.475C11.5581 104.165 11.5118 103.833 11.5403 103.503C11.5687 103.173 11.6712 102.853 11.84 102.568C21.34 85.5466 20.2532 91.8242 20.5192 77.8732L20.5471 77.8858C30.1991 83.2109 73.1897 83.2616 82.9076 80.7637C86.4441 79.8061 91.0143 78.2633 94.1733 76.3811C95.837 84.6119 95.2899 93.1364 92.5926 101.089ZM88.7824 75.3348C86.5176 76.2747 82.9051 77.483 80.4123 77.9086C80.5643 77.6882 104.155 43.6934 108.383 37.8516C109.953 38.9409 111.517 40.0176 113.08 41.0841C112.923 41.3045 89.3043 74.6052 88.7824 75.3348Z" fill="#00010D"/>
<path d="M32.3853 66.653L32.3879 66.6556C33.2239 67.7779 33.6951 68.6366 34.7185 68.6366C36.046 68.6366 36.8491 67.1268 36.0612 66.0273L35.1163 64.71C35.096 64.6846 35.0631 64.6771 35.0428 64.6517L32.1497 60.7453C31.8894 60.3939 31.5001 60.1603 31.0675 60.096C30.635 60.0316 30.1945 60.1417 29.8431 60.4021C29.4917 60.6624 29.2582 61.0517 29.1938 61.4843C29.1294 61.9168 29.2395 62.3573 29.4999 62.7087C30.9388 64.6847 31.7697 65.8272 32.3879 66.653H32.3853ZM84.0349 91.1327C83.8188 91.1125 83.6007 91.1358 83.3936 91.201C83.1866 91.2662 82.9946 91.3722 82.8289 91.5125C82.6633 91.6529 82.5274 91.825 82.4291 92.0186C82.3308 92.2122 82.2721 92.4234 82.2565 92.64C81.646 99.7987 78.9618 106.624 74.5324 112.281C74.3985 112.451 74.2994 112.646 74.2407 112.854C74.1821 113.062 74.165 113.28 74.1906 113.495C74.2161 113.71 74.2837 113.918 74.3895 114.106C74.4953 114.295 74.6373 114.461 74.8073 114.595C74.9773 114.729 75.172 114.828 75.3803 114.887C75.5886 114.945 75.8064 114.962 76.0213 114.937C76.2362 114.911 76.444 114.844 76.6327 114.738C76.8215 114.632 76.9876 114.49 77.1215 114.32C81.9511 108.155 84.8775 100.715 85.5423 92.9111C85.5603 92.6953 85.5356 92.478 85.4696 92.2718C85.4036 92.0656 85.2975 91.8744 85.1575 91.7092C85.0175 91.544 84.8463 91.4081 84.6536 91.3091C84.461 91.2102 84.2508 91.1502 84.0349 91.1327Z" fill="#00010D"/>
</svg>
